ISO-10303-21;
HEADER;

/* File generated by HOOPS Exchange Version 24.2.0 */

FILE_DESCRIPTION(('HOOPS Exchange Step'),'2;1');

FILE_NAME('C:\\github\\STEPoscope\\examples\\stepAP203\\CylinderSquare.step',
'2026-09-18T19:22:36+02:00',
('jorgen.engstrom'),
('Unknown organisation'),
'HOOPS Exchange 2024.2',
'HOOPS Exchange',
'Unknown authorisation');

FILE_SCHEMA( ('AP203_CONFIGURATION_CONTROLLED_3D_DESIGN_OF_MECHANICAL_PARTS_AND_ASSEMBLIES_MIM_LF') );

ENDSEC;

DATA;
#3=(NAMED_UNIT(*)PLANE_ANGLE_UNIT()SI_UNIT($,.RADIAN.));
#4=PLANE_ANGLE_MEASURE_WITH_UNIT(PLANE_ANGLE_MEASURE(0.0174532925),#3);
#5=(CONVERSION_BASED_UNIT('DEGREE',#4)NAMED_UNIT(#6)PLANE_ANGLE_UNIT());
#6=DIMENSIONAL_EXPONENTS(0.,0.,0.,0.,0.,0.,0.);
#7=(NAMED_UNIT(*)SI_UNIT($,.STERADIAN.)SOLID_ANGLE_UNIT());
#8=(LENGTH_UNIT()NAMED_UNIT(*)SI_UNIT(.MILLI.,.METRE.));
#9=UNCERTAINTY_MEASURE_WITH_UNIT(LENGTH_MEASURE(1.000000E-05),#8,'DISTANCE_ACCURACY_VALUE','Maximum Tolerance applied to model');
#10=(GEOMETRIC_REPRESENTATION_CONTEXT(3)GLOBAL_UNCERTAINTY_ASSIGNED_CONTEXT((#9))GLOBAL_UNIT_ASSIGNED_CONTEXT((#8,#5,#7))REPRESENTATION_CONTEXT('','root'));
#12=CARTESIAN_POINT('',(0.,0.,0.));
#13=DIRECTION('',(0.,0.,1.));
#14=DIRECTION('',(1.,0.,0.));
#15=AXIS2_PLACEMENT_3D('',#12,#13,#14);
#27=CARTESIAN_POINT('',(-129.717305297,-24.199069342,234.589642769));
#28=DIRECTION('',(1.,0.,0.));
#29=DIRECTION('',(0.,0.,-1.));
#30=AXIS2_PLACEMENT_3D('',#27,#28,#29);
#31=PLANE('',#30);
#32=CARTESIAN_POINT('',(-129.717305297,24.199069342,0.));
#33=VERTEX_POINT('',#32);
#34=CARTESIAN_POINT('',(-129.717305297,-24.199069342,0.));
#35=VERTEX_POINT('',#34);
#36=CARTESIAN_POINT('',(-129.717305297,24.199069342,0.));
#37=DIRECTION('',(-0.,-1.,-0.));
#38=VECTOR('',#37,48.398138683);
#39=LINE('',#36,#38);
#40=EDGE_CURVE('',#33,#35,#39,.T.);
#41=ORIENTED_EDGE('',*,*,#40,.T.);
#42=CARTESIAN_POINT('',(-129.717305297,-24.199069342,234.589642769));
#43=VERTEX_POINT('',#42);
#44=CARTESIAN_POINT('',(-129.717305297,-24.199069342,234.589642769));
#45=DIRECTION('',(0.,-0.,-1.));
#46=VECTOR('',#45,234.589642769);
#47=LINE('',#44,#46);
#48=EDGE_CURVE('',#43,#35,#47,.T.);
#49=ORIENTED_EDGE('',*,*,#48,.F.);
#50=CARTESIAN_POINT('',(-129.717305297,24.199069342,234.589642769));
#51=VERTEX_POINT('',#50);
#52=CARTESIAN_POINT('',(-129.717305297,24.199069342,234.589642769));
#53=DIRECTION('',(-0.,-1.,-0.));
#54=VECTOR('',#53,48.398138683);
#55=LINE('',#52,#54);
#56=EDGE_CURVE('',#51,#43,#55,.T.);
#57=ORIENTED_EDGE('',*,*,#56,.F.);
#58=CARTESIAN_POINT('',(-129.717305297,24.199069342,234.589642769));
#59=DIRECTION('',(0.,-0.,-1.));
#60=VECTOR('',#59,234.589642769);
#61=LINE('',#58,#60);
#62=EDGE_CURVE('',#51,#33,#61,.T.);
#63=ORIENTED_EDGE('',*,*,#62,.T.);
#64=EDGE_LOOP('',(#41,#49,#57,#63));
#65=FACE_BOUND('',#64,.T.);
#66=ADVANCED_FACE('',(#65),#31,.F.);
#67=CARTESIAN_POINT('',(-81.319166613,-24.199069342,234.589642769));
#68=DIRECTION('',(0.,1.,-0.));
#69=DIRECTION('',(0.,0.,1.));
#70=AXIS2_PLACEMENT_3D('',#67,#68,#69);
#71=PLANE('',#70);
#72=CARTESIAN_POINT('',(-102.705906169,-24.199069342,0.));
#73=VERTEX_POINT('',#72);
#74=CARTESIAN_POINT('',(-129.717305297,-24.199069342,0.));
#75=DIRECTION('',(1.,-0.,-0.));
#76=VECTOR('',#75,27.011399127);
#77=LINE('',#74,#76);
#78=EDGE_CURVE('',#35,#73,#77,.T.);
#79=ORIENTED_EDGE('',*,*,#78,.T.);
#80=CARTESIAN_POINT('',(-102.705906169,-24.199069342,234.589642769));
#81=VERTEX_POINT('',#80);
#82=CARTESIAN_POINT('',(-102.705906169,-24.199069342,234.589642769));
#83=DIRECTION('',(0.,-0.,-1.));
#84=VECTOR('',#83,234.589642769);
#85=LINE('',#82,#84);
#86=EDGE_CURVE('',#81,#73,#85,.T.);
#87=ORIENTED_EDGE('',*,*,#86,.F.);
#88=CARTESIAN_POINT('',(-129.717305297,-24.199069342,234.589642769));
#89=DIRECTION('',(1.,-0.,-0.));
#90=VECTOR('',#89,27.011399127);
#91=LINE('',#88,#90);
#92=EDGE_CURVE('',#43,#81,#91,.T.);
#93=ORIENTED_EDGE('',*,*,#92,.F.);
#94=ORIENTED_EDGE('',*,*,#48,.T.);
#95=EDGE_LOOP('',(#79,#87,#93,#94));
#96=FACE_BOUND('',#95,.T.);
#97=ADVANCED_FACE('',(#96),#71,.F.);
#98=CARTESIAN_POINT('',(0.,0.,234.589642769));
#99=DIRECTION('',(0.,-0.,-1.));
#100=DIRECTION('',(0.,1.,-0.));
#101=AXIS2_PLACEMENT_3D('',#98,#99,#100);
#102=CYLINDRICAL_SURFACE('',#101,105.518235955);
#103=CARTESIAN_POINT('',(0.,105.518235955,0.));
#104=VERTEX_POINT('',#103);
#105=CARTESIAN_POINT('',(0.,105.518235955,234.589642769));
#106=VERTEX_POINT('',#105);
#107=CARTESIAN_POINT('',(0.,105.518235955,0.));
#108=DIRECTION('',(-0.,0.,1.));
#109=VECTOR('',#108,234.589642769);
#110=LINE('',#107,#109);
#111=EDGE_CURVE('',#104,#106,#110,.T.);
#112=ORIENTED_EDGE('',*,*,#111,.T.);
#113=CARTESIAN_POINT('',(0.,0.,234.589642769));
#114=DIRECTION('',(0.,0.,1.));
#115=DIRECTION('',(-1.,0.,0.));
#116=AXIS2_PLACEMENT_3D('',#113,#114,#115);
#117=CIRCLE('',#116,105.518235955);
#118=EDGE_CURVE('',#81,#106,#117,.T.);
#119=ORIENTED_EDGE('',*,*,#118,.F.);
#120=ORIENTED_EDGE('',*,*,#86,.T.);
#121=CARTESIAN_POINT('',(0.,0.,0.));
#122=DIRECTION('',(0.,0.,1.));
#123=DIRECTION('',(-1.,0.,0.));
#124=AXIS2_PLACEMENT_3D('',#121,#122,#123);
#125=CIRCLE('',#124,105.518235955);
#126=EDGE_CURVE('',#73,#104,#125,.T.);
#127=ORIENTED_EDGE('',*,*,#126,.T.);
#128=EDGE_LOOP('',(#112,#119,#120,#127));
#129=FACE_BOUND('',#128,.T.);
#130=ADVANCED_FACE('',(#129),#102,.T.);
#131=CARTESIAN_POINT('',(-129.717305297,24.199069342,234.589642769));
#132=DIRECTION('',(0.,-1.,0.));
#133=DIRECTION('',(0.,-0.,-1.));
#134=AXIS2_PLACEMENT_3D('',#131,#132,#133);
#135=PLANE('',#134);
#136=CARTESIAN_POINT('',(-102.705906169,24.199069342,0.));
#137=VERTEX_POINT('',#136);
#138=CARTESIAN_POINT('',(-102.705906169,24.199069342,0.));
#139=DIRECTION('',(-1.,-0.,0.));
#140=VECTOR('',#139,27.011399127);
#141=LINE('',#138,#140);
#142=EDGE_CURVE('',#137,#33,#141,.T.);
#143=ORIENTED_EDGE('',*,*,#142,.T.);
#144=ORIENTED_EDGE('',*,*,#62,.F.);
#145=CARTESIAN_POINT('',(-102.705906169,24.199069342,234.589642769));
#146=VERTEX_POINT('',#145);
#147=CARTESIAN_POINT('',(-102.705906169,24.199069342,234.589642769));
#148=DIRECTION('',(-1.,-0.,0.));
#149=VECTOR('',#148,27.011399127);
#150=LINE('',#147,#149);
#151=EDGE_CURVE('',#146,#51,#150,.T.);
#152=ORIENTED_EDGE('',*,*,#151,.F.);
#153=CARTESIAN_POINT('',(-102.705906169,24.199069342,234.589642769));
#154=DIRECTION('',(0.,-0.,-1.));
#155=VECTOR('',#154,234.589642769);
#156=LINE('',#153,#155);
#157=EDGE_CURVE('',#146,#137,#156,.T.);
#158=ORIENTED_EDGE('',*,*,#157,.T.);
#159=EDGE_LOOP('',(#143,#144,#152,#158));
#160=FACE_BOUND('',#159,.T.);
#161=ADVANCED_FACE('',(#160),#135,.F.);
#162=CARTESIAN_POINT('',(0.,0.,234.589642769));
#163=DIRECTION('',(0.,0.,1.));
#164=DIRECTION('',(1.,0.,0.));
#165=AXIS2_PLACEMENT_3D('',#162,#163,#164);
#166=PLANE('',#165);
#167=ORIENTED_EDGE('',*,*,#56,.T.);
#168=ORIENTED_EDGE('',*,*,#92,.T.);
#169=ORIENTED_EDGE('',*,*,#118,.T.);
#170=CARTESIAN_POINT('',(0.,0.,234.589642769));
#171=DIRECTION('',(0.,0.,1.));
#172=DIRECTION('',(-1.,0.,0.));
#173=AXIS2_PLACEMENT_3D('',#170,#171,#172);
#174=CIRCLE('',#173,105.518235955);
#175=EDGE_CURVE('',#106,#146,#174,.T.);
#176=ORIENTED_EDGE('',*,*,#175,.T.);
#177=ORIENTED_EDGE('',*,*,#151,.T.);
#178=EDGE_LOOP('',(#167,#168,#169,#176,#177));
#179=FACE_BOUND('',#178,.T.);
#180=ADVANCED_FACE('',(#179),#166,.T.);
#181=CARTESIAN_POINT('',(0.,0.,0.));
#182=DIRECTION('',(0.,0.,1.));
#183=DIRECTION('',(1.,0.,0.));
#184=AXIS2_PLACEMENT_3D('',#181,#182,#183);
#185=PLANE('',#184);
#186=ORIENTED_EDGE('',*,*,#40,.F.);
#187=ORIENTED_EDGE('',*,*,#142,.F.);
#188=CARTESIAN_POINT('',(0.,0.,0.));
#189=DIRECTION('',(0.,0.,1.));
#190=DIRECTION('',(-1.,0.,0.));
#191=AXIS2_PLACEMENT_3D('',#188,#189,#190);
#192=CIRCLE('',#191,105.518235955);
#193=EDGE_CURVE('',#104,#137,#192,.T.);
#194=ORIENTED_EDGE('',*,*,#193,.F.);
#195=ORIENTED_EDGE('',*,*,#126,.F.);
#196=ORIENTED_EDGE('',*,*,#78,.F.);
#197=EDGE_LOOP('',(#186,#187,#194,#195,#196));
#198=FACE_BOUND('',#197,.T.);
#199=ADVANCED_FACE('',(#198),#185,.F.);
#200=CARTESIAN_POINT('',(0.,0.,234.589642769));
#201=DIRECTION('',(0.,-0.,-1.));
#202=DIRECTION('',(0.,1.,-0.));
#203=AXIS2_PLACEMENT_3D('',#200,#201,#202);
#204=CYLINDRICAL_SURFACE('',#203,105.518235955);
#205=ORIENTED_EDGE('',*,*,#111,.F.);
#206=ORIENTED_EDGE('',*,*,#193,.T.);
#207=ORIENTED_EDGE('',*,*,#157,.F.);
#208=ORIENTED_EDGE('',*,*,#175,.F.);
#209=EDGE_LOOP('',(#205,#206,#207,#208));
#210=FACE_BOUND('',#209,.T.);
#211=ADVANCED_FACE('',(#210),#204,.T.);
#212=CLOSED_SHELL('',(#66,#97,#130,#161,#180,#199,#211));
#213=MANIFOLD_SOLID_BREP('Extruded.001',#212);
#26=STYLED_ITEM('',(),#213);
#16=SHAPE_REPRESENTATION('root',(#15),#10);
#17=ADVANCED_BREP_SHAPE_REPRESENTATION('root',(#213),#10);
#221=SHAPE_REPRESENTATION_RELATIONSHIP('','',#16,#17);
#222=APPLICATION_CONTEXT('configuration controlled 3D design of mechanical parts and assemblies');
#223=APPLICATION_PROTOCOL_DEFINITION('international standard','configuration_control_3d_design_ed2_mim',2004,#222);
#224=PRODUCT_CONTEXT('',#222,'mechanical');
#225=PRODUCT_DEFINITION_CONTEXT('part definition',#222,'design');
#24=PRODUCT('root','root','',(#224));
#226=PRODUCT_RELATED_PRODUCT_CATEGORY('part','',(#24));
#227=PRODUCT_DEFINITION_FORMATION_WITH_SPECIFIED_SOURCE('','',#24,.NOT_KNOWN.);
#25=PRODUCT_DEFINITION('design','',#227,#225);
#23=PRODUCT_DEFINITION_SHAPE('','',#25);
#228=SHAPE_DEFINITION_REPRESENTATION(#23,#16);
#11=DRAUGHTING_MODEL('',(),#10);
#1=MECHANICAL_DESIGN_GEOMETRIC_PRESENTATION_REPRESENTATION('',(#26),#10);
ENDSEC;
END-ISO-10303-21;
