ISO-10303-21;
HEADER;

/* File generated by HOOPS Exchange Version 24.2.0 */

FILE_DESCRIPTION(('HOOPS Exchange Step'),'2;1');

FILE_NAME('C:\\github\\STEPoscope\\examples\\stepAP203\\diagonals.step',
'2026-09-18T19:48:04+02:00',
('jorgen.engstrom'),
('Unknown organisation'),
'HOOPS Exchange 2024.2',
'HOOPS Exchange',
'Unknown authorisation');

FILE_SCHEMA( ('AP203_CONFIGURATION_CONTROLLED_3D_DESIGN_OF_MECHANICAL_PARTS_AND_ASSEMBLIES_MIM_LF') );

ENDSEC;

DATA;
#3=(NAMED_UNIT(*)PLANE_ANGLE_UNIT()SI_UNIT($,.RADIAN.));
#4=PLANE_ANGLE_MEASURE_WITH_UNIT(PLANE_ANGLE_MEASURE(0.0174532925),#3);
#5=(CONVERSION_BASED_UNIT('DEGREE',#4)NAMED_UNIT(#6)PLANE_ANGLE_UNIT());
#6=DIMENSIONAL_EXPONENTS(0.,0.,0.,0.,0.,0.,0.);
#7=(NAMED_UNIT(*)SI_UNIT($,.STERADIAN.)SOLID_ANGLE_UNIT());
#8=(LENGTH_UNIT()NAMED_UNIT(*)SI_UNIT(.MILLI.,.METRE.));
#9=UNCERTAINTY_MEASURE_WITH_UNIT(LENGTH_MEASURE(1.000000E-05),#8,'DISTANCE_ACCURACY_VALUE','Maximum Tolerance applied to model');
#10=(GEOMETRIC_REPRESENTATION_CONTEXT(3)GLOBAL_UNCERTAINTY_ASSIGNED_CONTEXT((#9))GLOBAL_UNIT_ASSIGNED_CONTEXT((#8,#5,#7))REPRESENTATION_CONTEXT('','root'));
#12=CARTESIAN_POINT('',(0.,0.,0.));
#13=DIRECTION('',(0.,0.,1.));
#14=DIRECTION('',(1.,0.,0.));
#15=AXIS2_PLACEMENT_3D('',#12,#13,#14);
#27=CARTESIAN_POINT('',(0.,0.,264.015675328));
#28=DIRECTION('',(0.707106781,0.707106781,-0.));
#29=DIRECTION('',(-0.707106781,0.707106781,0.));
#30=AXIS2_PLACEMENT_3D('',#27,#28,#29);
#31=PLANE('',#30);
#32=CARTESIAN_POINT('',(0.,0.,0.));
#33=VERTEX_POINT('',#32);
#34=CARTESIAN_POINT('',(170.641553139,-170.641553139,0.));
#35=VERTEX_POINT('',#34);
#36=CARTESIAN_POINT('',(0.,0.,0.));
#37=DIRECTION('',(0.707106781,-0.707106781,0.));
#38=VECTOR('',#37,241.323598754);
#39=LINE('',#36,#38);
#40=EDGE_CURVE('',#33,#35,#39,.T.);
#41=ORIENTED_EDGE('',*,*,#40,.F.);
#42=CARTESIAN_POINT('',(0.,0.,264.015675328));
#43=VERTEX_POINT('',#42);
#44=CARTESIAN_POINT('',(0.,0.,264.015675328));
#45=DIRECTION('',(0.,-0.,-1.));
#46=VECTOR('',#45,264.015675328);
#47=LINE('',#44,#46);
#48=EDGE_CURVE('',#43,#33,#47,.T.);
#49=ORIENTED_EDGE('',*,*,#48,.F.);
#50=CARTESIAN_POINT('',(170.641553139,-170.641553139,264.015675328));
#51=VERTEX_POINT('',#50);
#52=CARTESIAN_POINT('',(0.,0.,264.015675328));
#53=DIRECTION('',(0.707106781,-0.707106781,0.));
#54=VECTOR('',#53,241.323598754);
#55=LINE('',#52,#54);
#56=EDGE_CURVE('',#43,#51,#55,.T.);
#57=ORIENTED_EDGE('',*,*,#56,.T.);
#58=CARTESIAN_POINT('',(170.641553139,-170.641553139,264.015675328));
#59=DIRECTION('',(0.,-0.,-1.));
#60=VECTOR('',#59,264.015675328);
#61=LINE('',#58,#60);
#62=EDGE_CURVE('',#51,#35,#61,.T.);
#63=ORIENTED_EDGE('',*,*,#62,.T.);
#64=EDGE_LOOP('',(#41,#49,#57,#63));
#65=FACE_BOUND('',#64,.T.);
#66=ADVANCED_FACE('',(#65),#31,.T.);
#67=CARTESIAN_POINT('',(0.,0.,264.015675328));
#68=DIRECTION('',(-0.707106781,0.707106781,-0.));
#69=DIRECTION('',(-0.707106781,-0.707106781,0.));
#70=AXIS2_PLACEMENT_3D('',#67,#68,#69);
#71=PLANE('',#70);
#72=CARTESIAN_POINT('',(102.1019519,102.1019519,0.));
#73=VERTEX_POINT('',#72);
#74=CARTESIAN_POINT('',(0.,0.,0.));
#75=DIRECTION('',(0.707106781,0.707106781,0.));
#76=VECTOR('',#75,144.393965121);
#77=LINE('',#74,#76);
#78=EDGE_CURVE('',#33,#73,#77,.T.);
#79=ORIENTED_EDGE('',*,*,#78,.T.);
#80=CARTESIAN_POINT('',(102.1019519,102.1019519,264.015675328));
#81=VERTEX_POINT('',#80);
#82=CARTESIAN_POINT('',(102.1019519,102.1019519,264.015675328));
#83=DIRECTION('',(0.,-0.,-1.));
#84=VECTOR('',#83,264.015675328);
#85=LINE('',#82,#84);
#86=EDGE_CURVE('',#81,#73,#85,.T.);
#87=ORIENTED_EDGE('',*,*,#86,.F.);
#88=CARTESIAN_POINT('',(0.,0.,264.015675328));
#89=DIRECTION('',(0.707106781,0.707106781,0.));
#90=VECTOR('',#89,144.393965121);
#91=LINE('',#88,#90);
#92=EDGE_CURVE('',#43,#81,#91,.T.);
#93=ORIENTED_EDGE('',*,*,#92,.F.);
#94=ORIENTED_EDGE('',*,*,#48,.T.);
#95=EDGE_LOOP('',(#79,#87,#93,#94));
#96=FACE_BOUND('',#95,.T.);
#97=ADVANCED_FACE('',(#96),#71,.F.);
#98=CARTESIAN_POINT('',(102.1019519,102.1019519,264.015675328));
#99=DIRECTION('',(-0.792900494,-0.609351136,0.));
#100=DIRECTION('',(0.609351136,-0.792900494,0.));
#101=AXIS2_PLACEMENT_3D('',#98,#99,#100);
#102=PLANE('',#101);
#103=CARTESIAN_POINT('',(-69.968818546,326.004051596,0.));
#104=VERTEX_POINT('',#103);
#105=CARTESIAN_POINT('',(102.1019519,102.1019519,0.));
#106=DIRECTION('',(-0.609351136,0.792900494,0.));
#107=VECTOR('',#106,282.383604854);
#108=LINE('',#105,#107);
#109=EDGE_CURVE('',#73,#104,#108,.T.);
#110=ORIENTED_EDGE('',*,*,#109,.T.);
#111=CARTESIAN_POINT('',(-69.968818546,326.004051596,264.015675328));
#112=VERTEX_POINT('',#111);
#113=CARTESIAN_POINT('',(-69.968818546,326.004051596,264.015675328));
#114=DIRECTION('',(0.,-0.,-1.));
#115=VECTOR('',#114,264.015675328);
#116=LINE('',#113,#115);
#117=EDGE_CURVE('',#112,#104,#116,.T.);
#118=ORIENTED_EDGE('',*,*,#117,.F.);
#119=CARTESIAN_POINT('',(102.1019519,102.1019519,264.015675328));
#120=DIRECTION('',(-0.609351136,0.792900494,0.));
#121=VECTOR('',#120,282.383604854);
#122=LINE('',#119,#121);
#123=EDGE_CURVE('',#81,#112,#122,.T.);
#124=ORIENTED_EDGE('',*,*,#123,.F.);
#125=ORIENTED_EDGE('',*,*,#86,.T.);
#126=EDGE_LOOP('',(#110,#118,#124,#125));
#127=FACE_BOUND('',#126,.T.);
#128=ADVANCED_FACE('',(#127),#102,.F.);
#129=CARTESIAN_POINT('',(-319.74221386,76.230656281,264.015675328));
#130=DIRECTION('',(-0.707106781,0.707106781,-0.));
#131=DIRECTION('',(-0.707106781,-0.707106781,0.));
#132=AXIS2_PLACEMENT_3D('',#129,#130,#131);
#133=PLANE('',#132);
#134=CARTESIAN_POINT('',(-319.74221386,76.230656281,0.));
#135=VERTEX_POINT('',#134);
#136=CARTESIAN_POINT('',(-319.74221386,76.230656281,0.));
#137=DIRECTION('',(0.707106781,0.707106781,0.));
#138=VECTOR('',#137,353.232923174);
#139=LINE('',#136,#138);
#140=EDGE_CURVE('',#135,#104,#139,.T.);
#141=ORIENTED_EDGE('',*,*,#140,.F.);
#142=CARTESIAN_POINT('',(-319.74221386,76.230656281,264.015675328));
#143=VERTEX_POINT('',#142);
#144=CARTESIAN_POINT('',(-319.74221386,76.230656281,264.015675328));
#145=DIRECTION('',(0.,-0.,-1.));
#146=VECTOR('',#145,264.015675328);
#147=LINE('',#144,#146);
#148=EDGE_CURVE('',#143,#135,#147,.T.);
#149=ORIENTED_EDGE('',*,*,#148,.F.);
#150=CARTESIAN_POINT('',(-319.74221386,76.230656281,264.015675328));
#151=DIRECTION('',(0.707106781,0.707106781,0.));
#152=VECTOR('',#151,353.232923174);
#153=LINE('',#150,#152);
#154=EDGE_CURVE('',#143,#112,#153,.T.);
#155=ORIENTED_EDGE('',*,*,#154,.T.);
#156=ORIENTED_EDGE('',*,*,#117,.T.);
#157=EDGE_LOOP('',(#141,#149,#155,#156));
#158=FACE_BOUND('',#157,.T.);
#159=ADVANCED_FACE('',(#158),#133,.T.);
#160=CARTESIAN_POINT('',(48.88577435,-292.397331929,264.015675328));
#161=DIRECTION('',(-0.707106781,-0.707106781,0.));
#162=DIRECTION('',(0.707106781,-0.707106781,0.));
#163=AXIS2_PLACEMENT_3D('',#160,#161,#162);
#164=PLANE('',#163);
#165=CARTESIAN_POINT('',(48.88577435,-292.397331929,0.));
#166=VERTEX_POINT('',#165);
#167=CARTESIAN_POINT('',(48.88577435,-292.397331929,0.));
#168=DIRECTION('',(-0.707106781,0.707106781,0.));
#169=VECTOR('',#168,521.318700397);
#170=LINE('',#167,#169);
#171=EDGE_CURVE('',#166,#135,#170,.T.);
#172=ORIENTED_EDGE('',*,*,#171,.F.);
#173=CARTESIAN_POINT('',(48.88577435,-292.397331929,264.015675328));
#174=VERTEX_POINT('',#173);
#175=CARTESIAN_POINT('',(48.88577435,-292.397331929,264.015675328));
#176=DIRECTION('',(0.,-0.,-1.));
#177=VECTOR('',#176,264.015675328);
#178=LINE('',#175,#177);
#179=EDGE_CURVE('',#174,#166,#178,.T.);
#180=ORIENTED_EDGE('',*,*,#179,.F.);
#181=CARTESIAN_POINT('',(48.88577435,-292.397331929,264.015675328));
#182=DIRECTION('',(-0.707106781,0.707106781,0.));
#183=VECTOR('',#182,521.318700397);
#184=LINE('',#181,#183);
#185=EDGE_CURVE('',#174,#143,#184,.T.);
#186=ORIENTED_EDGE('',*,*,#185,.T.);
#187=ORIENTED_EDGE('',*,*,#148,.T.);
#188=EDGE_LOOP('',(#172,#180,#186,#187));
#189=FACE_BOUND('',#188,.T.);
#190=ADVANCED_FACE('',(#189),#164,.T.);
#191=CARTESIAN_POINT('',(170.641553139,-170.641553139,264.015675328));
#192=DIRECTION('',(0.707106781,-0.707106781,0.));
#193=DIRECTION('',(0.707106781,0.707106781,0.));
#194=AXIS2_PLACEMENT_3D('',#191,#192,#193);
#195=PLANE('',#194);
#196=CARTESIAN_POINT('',(170.641553139,-170.641553139,0.));
#197=DIRECTION('',(-0.707106781,-0.707106781,0.));
#198=VECTOR('',#197,172.188673661);
#199=LINE('',#196,#198);
#200=EDGE_CURVE('',#35,#166,#199,.T.);
#201=ORIENTED_EDGE('',*,*,#200,.F.);
#202=ORIENTED_EDGE('',*,*,#62,.F.);
#203=CARTESIAN_POINT('',(170.641553139,-170.641553139,264.015675328));
#204=DIRECTION('',(-0.707106781,-0.707106781,0.));
#205=VECTOR('',#204,172.188673661);
#206=LINE('',#203,#205);
#207=EDGE_CURVE('',#51,#174,#206,.T.);
#208=ORIENTED_EDGE('',*,*,#207,.T.);
#209=ORIENTED_EDGE('',*,*,#179,.T.);
#210=EDGE_LOOP('',(#201,#202,#208,#209));
#211=FACE_BOUND('',#210,.T.);
#212=ADVANCED_FACE('',(#211),#195,.T.);
#213=CARTESIAN_POINT('',(0.,0.,264.015675328));
#214=DIRECTION('',(0.,0.,1.));
#215=DIRECTION('',(1.,0.,0.));
#216=AXIS2_PLACEMENT_3D('',#213,#214,#215);
#217=PLANE('',#216);
#218=ORIENTED_EDGE('',*,*,#56,.F.);
#219=ORIENTED_EDGE('',*,*,#92,.T.);
#220=ORIENTED_EDGE('',*,*,#123,.T.);
#221=ORIENTED_EDGE('',*,*,#154,.F.);
#222=ORIENTED_EDGE('',*,*,#185,.F.);
#223=ORIENTED_EDGE('',*,*,#207,.F.);
#224=EDGE_LOOP('',(#218,#219,#220,#221,#222,#223));
#225=FACE_BOUND('',#224,.T.);
#226=ADVANCED_FACE('',(#225),#217,.T.);
#227=CARTESIAN_POINT('',(0.,0.,0.));
#228=DIRECTION('',(0.,0.,1.));
#229=DIRECTION('',(1.,0.,0.));
#230=AXIS2_PLACEMENT_3D('',#227,#228,#229);
#231=PLANE('',#230);
#232=ORIENTED_EDGE('',*,*,#40,.T.);
#233=ORIENTED_EDGE('',*,*,#200,.T.);
#234=ORIENTED_EDGE('',*,*,#171,.T.);
#235=ORIENTED_EDGE('',*,*,#140,.T.);
#236=ORIENTED_EDGE('',*,*,#109,.F.);
#237=ORIENTED_EDGE('',*,*,#78,.F.);
#238=EDGE_LOOP('',(#232,#233,#234,#235,#236,#237));
#239=FACE_BOUND('',#238,.T.);
#240=ADVANCED_FACE('',(#239),#231,.F.);
#241=CLOSED_SHELL('',(#66,#97,#128,#159,#190,#212,#226,#240));
#242=MANIFOLD_SOLID_BREP('Extruded.001',#241);
#26=STYLED_ITEM('',(),#242);
#16=SHAPE_REPRESENTATION('root',(#15),#10);
#17=ADVANCED_BREP_SHAPE_REPRESENTATION('root',(#242),#10);
#250=SHAPE_REPRESENTATION_RELATIONSHIP('','',#16,#17);
#251=APPLICATION_CONTEXT('configuration controlled 3D design of mechanical parts and assemblies');
#252=APPLICATION_PROTOCOL_DEFINITION('international standard','configuration_control_3d_design_ed2_mim',2004,#251);
#253=PRODUCT_CONTEXT('',#251,'mechanical');
#254=PRODUCT_DEFINITION_CONTEXT('part definition',#251,'design');
#24=PRODUCT('root','root','',(#253));
#255=PRODUCT_RELATED_PRODUCT_CATEGORY('part','',(#24));
#256=PRODUCT_DEFINITION_FORMATION_WITH_SPECIFIED_SOURCE('','',#24,.NOT_KNOWN.);
#25=PRODUCT_DEFINITION('design','',#256,#254);
#23=PRODUCT_DEFINITION_SHAPE('','',#25);
#257=SHAPE_DEFINITION_REPRESENTATION(#23,#16);
#11=DRAUGHTING_MODEL('',(),#10);
#1=MECHANICAL_DESIGN_GEOMETRIC_PRESENTATION_REPRESENTATION('',(#26),#10);
ENDSEC;
END-ISO-10303-21;
