ISO-10303-21;
HEADER;

/* File generated by HOOPS Exchange Version 24.2.0 */

FILE_DESCRIPTION(('HOOPS Exchange Step'),'2;1');

FILE_NAME('C:\\github\\STEPoscope\\examples\\stepAP203\\hole1.step',
'2026-09-18T19:46:06+02:00',
('jorgen.engstrom'),
('Unknown organisation'),
'HOOPS Exchange 2024.2',
'HOOPS Exchange',
'Unknown authorisation');

FILE_SCHEMA( ('AP203_CONFIGURATION_CONTROLLED_3D_DESIGN_OF_MECHANICAL_PARTS_AND_ASSEMBLIES_MIM_LF') );

ENDSEC;

DATA;
#3=(NAMED_UNIT(*)PLANE_ANGLE_UNIT()SI_UNIT($,.RADIAN.));
#4=PLANE_ANGLE_MEASURE_WITH_UNIT(PLANE_ANGLE_MEASURE(0.0174532925),#3);
#5=(CONVERSION_BASED_UNIT('DEGREE',#4)NAMED_UNIT(#6)PLANE_ANGLE_UNIT());
#6=DIMENSIONAL_EXPONENTS(0.,0.,0.,0.,0.,0.,0.);
#7=(NAMED_UNIT(*)SI_UNIT($,.STERADIAN.)SOLID_ANGLE_UNIT());
#8=(LENGTH_UNIT()NAMED_UNIT(*)SI_UNIT(.MILLI.,.METRE.));
#9=UNCERTAINTY_MEASURE_WITH_UNIT(LENGTH_MEASURE(1.000000E-05),#8,'DISTANCE_ACCURACY_VALUE','Maximum Tolerance applied to model');
#10=(GEOMETRIC_REPRESENTATION_CONTEXT(3)GLOBAL_UNCERTAINTY_ASSIGNED_CONTEXT((#9))GLOBAL_UNIT_ASSIGNED_CONTEXT((#8,#5,#7))REPRESENTATION_CONTEXT('','root'));
#12=CARTESIAN_POINT('',(0.,0.,0.));
#13=DIRECTION('',(0.,0.,1.));
#14=DIRECTION('',(1.,0.,0.));
#15=AXIS2_PLACEMENT_3D('',#12,#13,#14);
#27=CARTESIAN_POINT('',(0.,0.,197.564986853));
#28=DIRECTION('',(0.,0.,1.));
#29=DIRECTION('',(1.,0.,-0.));
#30=AXIS2_PLACEMENT_3D('',#27,#28,#29);
#31=CYLINDRICAL_SURFACE('',#30,126.830199825);
#32=CARTESIAN_POINT('',(126.830199825,0.,290.795733945));
#33=VERTEX_POINT('',#32);
#34=CARTESIAN_POINT('',(126.830199825,0.,197.564986853));
#35=VERTEX_POINT('',#34);
#36=CARTESIAN_POINT('',(126.830199825,0.,290.795733945));
#37=DIRECTION('',(-0.,-0.,-1.));
#38=VECTOR('',#37,93.230747092);
#39=LINE('',#36,#38);
#40=EDGE_CURVE('',#33,#35,#39,.T.);
#41=ORIENTED_EDGE('',*,*,#40,.T.);
#42=CARTESIAN_POINT('',(0.,0.,197.564986853));
#43=DIRECTION('',(0.,0.,1.));
#44=DIRECTION('',(1.,0.,-0.));
#45=AXIS2_PLACEMENT_3D('',#42,#43,#44);
#46=CIRCLE('',#45,126.830199825);
#47=EDGE_CURVE('',#35,#35,#46,.T.);
#48=ORIENTED_EDGE('',*,*,#47,.T.);
#49=ORIENTED_EDGE('',*,*,#40,.F.);
#50=CARTESIAN_POINT('',(0.,0.,290.795733945));
#51=DIRECTION('',(0.,0.,1.));
#52=DIRECTION('',(1.,0.,-0.));
#53=AXIS2_PLACEMENT_3D('',#50,#51,#52);
#54=CIRCLE('',#53,126.830199825);
#55=EDGE_CURVE('',#33,#33,#54,.T.);
#56=ORIENTED_EDGE('',*,*,#55,.F.);
#57=EDGE_LOOP('',(#41,#48,#49,#56));
#58=FACE_BOUND('',#57,.T.);
#59=ADVANCED_FACE('',(#58),#31,.T.);
#60=CARTESIAN_POINT('',(0.,0.,197.564986853));
#61=DIRECTION('',(0.,0.,1.));
#62=DIRECTION('',(1.,0.,-0.));
#63=AXIS2_PLACEMENT_3D('',#60,#61,#62);
#64=CYLINDRICAL_SURFACE('',#63,106.004002846);
#65=CARTESIAN_POINT('',(106.004002846,0.,290.795733945));
#66=VERTEX_POINT('',#65);
#67=CARTESIAN_POINT('',(106.004002846,0.,197.564986853));
#68=VERTEX_POINT('',#67);
#69=CARTESIAN_POINT('',(106.004002846,0.,290.795733945));
#70=DIRECTION('',(-0.,-0.,-1.));
#71=VECTOR('',#70,93.230747092);
#72=LINE('',#69,#71);
#73=EDGE_CURVE('',#66,#68,#72,.T.);
#74=ORIENTED_EDGE('',*,*,#73,.F.);
#75=CARTESIAN_POINT('',(0.,0.,290.795733945));
#76=DIRECTION('',(0.,0.,1.));
#77=DIRECTION('',(1.,0.,-0.));
#78=AXIS2_PLACEMENT_3D('',#75,#76,#77);
#79=CIRCLE('',#78,106.004002846);
#80=EDGE_CURVE('',#66,#66,#79,.T.);
#81=ORIENTED_EDGE('',*,*,#80,.T.);
#82=ORIENTED_EDGE('',*,*,#73,.T.);
#83=CARTESIAN_POINT('',(0.,0.,197.564986853));
#84=DIRECTION('',(0.,0.,1.));
#85=DIRECTION('',(1.,0.,-0.));
#86=AXIS2_PLACEMENT_3D('',#83,#84,#85);
#87=CIRCLE('',#86,106.004002846);
#88=EDGE_CURVE('',#68,#68,#87,.T.);
#89=ORIENTED_EDGE('',*,*,#88,.F.);
#90=EDGE_LOOP('',(#74,#81,#82,#89));
#91=FACE_BOUND('',#90,.T.);
#92=ADVANCED_FACE('',(#91),#64,.F.);
#93=CARTESIAN_POINT('',(0.,0.,197.564986853));
#94=DIRECTION('',(0.,0.,1.));
#95=DIRECTION('',(1.,0.,0.));
#96=AXIS2_PLACEMENT_3D('',#93,#94,#95);
#97=PLANE('',#96);
#98=CARTESIAN_POINT('',(95.756614539,0.,197.564986853));
#99=VERTEX_POINT('',#98);
#100=CARTESIAN_POINT('',(0.,0.,197.564986853));
#101=DIRECTION('',(0.,0.,1.));
#102=DIRECTION('',(1.,0.,-0.));
#103=AXIS2_PLACEMENT_3D('',#100,#101,#102);
#104=CIRCLE('',#103,95.756614539);
#105=EDGE_CURVE('',#99,#99,#104,.T.);
#106=ORIENTED_EDGE('',*,*,#105,.F.);
#107=EDGE_LOOP('',(#106));
#108=FACE_BOUND('',#107,.T.);
#109=ORIENTED_EDGE('',*,*,#88,.T.);
#110=EDGE_LOOP('',(#109));
#111=FACE_BOUND('',#110,.T.);
#112=ADVANCED_FACE('',(#108,#111),#97,.T.);
#113=CARTESIAN_POINT('',(0.,0.,290.795733945));
#114=DIRECTION('',(0.,0.,1.));
#115=DIRECTION('',(1.,0.,0.));
#116=AXIS2_PLACEMENT_3D('',#113,#114,#115);
#117=PLANE('',#116);
#118=ORIENTED_EDGE('',*,*,#80,.F.);
#119=EDGE_LOOP('',(#118));
#120=FACE_BOUND('',#119,.T.);
#121=ORIENTED_EDGE('',*,*,#55,.T.);
#122=EDGE_LOOP('',(#121));
#123=FACE_BOUND('',#122,.T.);
#124=ADVANCED_FACE('',(#120,#123),#117,.T.);
#125=CARTESIAN_POINT('',(0.,0.,197.564986853));
#126=DIRECTION('',(0.,0.,1.));
#127=DIRECTION('',(1.,0.,-0.));
#128=AXIS2_PLACEMENT_3D('',#125,#126,#127);
#129=CYLINDRICAL_SURFACE('',#128,95.756614539);
#130=CARTESIAN_POINT('',(95.756614539,0.,169.757987928));
#131=VERTEX_POINT('',#130);
#132=CARTESIAN_POINT('',(95.756614539,0.,197.564986853));
#133=DIRECTION('',(-0.,-0.,-1.));
#134=VECTOR('',#133,27.806998925);
#135=LINE('',#132,#134);
#136=EDGE_CURVE('',#99,#131,#135,.T.);
#137=ORIENTED_EDGE('',*,*,#136,.F.);
#138=ORIENTED_EDGE('',*,*,#105,.T.);
#139=ORIENTED_EDGE('',*,*,#136,.T.);
#140=CARTESIAN_POINT('',(0.,0.,169.757987928));
#141=DIRECTION('',(0.,0.,1.));
#142=DIRECTION('',(1.,0.,-0.));
#143=AXIS2_PLACEMENT_3D('',#140,#141,#142);
#144=CIRCLE('',#143,95.756614539);
#145=EDGE_CURVE('',#131,#131,#144,.T.);
#146=ORIENTED_EDGE('',*,*,#145,.F.);
#147=EDGE_LOOP('',(#137,#138,#139,#146));
#148=FACE_BOUND('',#147,.T.);
#149=ADVANCED_FACE('',(#148),#129,.F.);
#150=CARTESIAN_POINT('',(0.,0.,169.757987928));
#151=DIRECTION('',(0.,0.,1.));
#152=DIRECTION('',(1.,0.,0.));
#153=AXIS2_PLACEMENT_3D('',#150,#151,#152);
#154=PLANE('',#153);
#155=ORIENTED_EDGE('',*,*,#145,.T.);
#156=EDGE_LOOP('',(#155));
#157=FACE_BOUND('',#156,.T.);
#158=ADVANCED_FACE('',(#157),#154,.T.);
#159=CARTESIAN_POINT('',(0.,0.,197.564986853));
#160=DIRECTION('',(0.,-0.,-1.));
#161=DIRECTION('',(0.,1.,-0.));
#162=AXIS2_PLACEMENT_3D('',#159,#160,#161);
#163=CYLINDRICAL_SURFACE('',#162,144.45195947);
#164=CARTESIAN_POINT('',(0.,144.45195947,0.));
#165=VERTEX_POINT('',#164);
#166=CARTESIAN_POINT('',(0.,144.45195947,197.564986853));
#167=VERTEX_POINT('',#166);
#168=CARTESIAN_POINT('',(0.,144.45195947,0.));
#169=DIRECTION('',(-0.,0.,1.));
#170=VECTOR('',#169,197.564986853);
#171=LINE('',#168,#170);
#172=EDGE_CURVE('',#165,#167,#171,.T.);
#173=ORIENTED_EDGE('',*,*,#172,.T.);
#174=CARTESIAN_POINT('',(144.45195947,0.,197.564986853));
#175=VERTEX_POINT('',#174);
#176=CARTESIAN_POINT('',(0.,0.,197.564986853));
#177=DIRECTION('',(0.,0.,1.));
#178=DIRECTION('',(1.,0.,-0.));
#179=AXIS2_PLACEMENT_3D('',#176,#177,#178);
#180=CIRCLE('',#179,144.45195947);
#181=EDGE_CURVE('',#175,#167,#180,.T.);
#182=ORIENTED_EDGE('',*,*,#181,.F.);
#183=CARTESIAN_POINT('',(0.,0.,197.564986853));
#184=DIRECTION('',(0.,0.,1.));
#185=DIRECTION('',(1.,0.,-0.));
#186=AXIS2_PLACEMENT_3D('',#183,#184,#185);
#187=CIRCLE('',#186,144.45195947);
#188=EDGE_CURVE('',#167,#175,#187,.T.);
#189=ORIENTED_EDGE('',*,*,#188,.F.);
#190=ORIENTED_EDGE('',*,*,#172,.F.);
#191=CARTESIAN_POINT('',(144.45195947,-0.,0.));
#192=VERTEX_POINT('',#191);
#193=CARTESIAN_POINT('',(0.,0.,0.));
#194=DIRECTION('',(0.,0.,1.));
#195=DIRECTION('',(1.,0.,0.));
#196=AXIS2_PLACEMENT_3D('',#193,#194,#195);
#197=CIRCLE('',#196,144.45195947);
#198=EDGE_CURVE('',#165,#192,#197,.T.);
#199=ORIENTED_EDGE('',*,*,#198,.T.);
#200=CARTESIAN_POINT('',(0.,0.,0.));
#201=DIRECTION('',(0.,0.,1.));
#202=DIRECTION('',(1.,0.,0.));
#203=AXIS2_PLACEMENT_3D('',#200,#201,#202);
#204=CIRCLE('',#203,144.45195947);
#205=EDGE_CURVE('',#192,#165,#204,.T.);
#206=ORIENTED_EDGE('',*,*,#205,.T.);
#207=EDGE_LOOP('',(#173,#182,#189,#190,#199,#206));
#208=FACE_BOUND('',#207,.T.);
#209=ADVANCED_FACE('',(#208),#163,.T.);
#210=CARTESIAN_POINT('',(0.,0.,197.564986853));
#211=DIRECTION('',(0.,0.,1.));
#212=DIRECTION('',(1.,0.,0.));
#213=AXIS2_PLACEMENT_3D('',#210,#211,#212);
#214=PLANE('',#213);
#215=ORIENTED_EDGE('',*,*,#47,.F.);
#216=EDGE_LOOP('',(#215));
#217=FACE_BOUND('',#216,.T.);
#218=ORIENTED_EDGE('',*,*,#181,.T.);
#219=ORIENTED_EDGE('',*,*,#188,.T.);
#220=EDGE_LOOP('',(#218,#219));
#221=FACE_BOUND('',#220,.T.);
#222=ADVANCED_FACE('',(#217,#221),#214,.T.);
#223=CARTESIAN_POINT('',(0.,0.,0.));
#224=DIRECTION('',(0.,0.,1.));
#225=DIRECTION('',(1.,0.,0.));
#226=AXIS2_PLACEMENT_3D('',#223,#224,#225);
#227=PLANE('',#226);
#228=ORIENTED_EDGE('',*,*,#198,.F.);
#229=ORIENTED_EDGE('',*,*,#205,.F.);
#230=EDGE_LOOP('',(#228,#229));
#231=FACE_BOUND('',#230,.T.);
#232=ADVANCED_FACE('',(#231),#227,.F.);
#233=CLOSED_SHELL('',(#59,#92,#112,#124,#149,#158,#209,#222,#232));
#234=MANIFOLD_SOLID_BREP('Extruded.001',#233);
#26=STYLED_ITEM('',(),#234);
#16=SHAPE_REPRESENTATION('root',(#15),#10);
#17=ADVANCED_BREP_SHAPE_REPRESENTATION('root',(#234),#10);
#242=SHAPE_REPRESENTATION_RELATIONSHIP('','',#16,#17);
#243=APPLICATION_CONTEXT('configuration controlled 3D design of mechanical parts and assemblies');
#244=APPLICATION_PROTOCOL_DEFINITION('international standard','configuration_control_3d_design_ed2_mim',2004,#243);
#245=PRODUCT_CONTEXT('',#243,'mechanical');
#246=PRODUCT_DEFINITION_CONTEXT('part definition',#243,'design');
#24=PRODUCT('root','root','',(#245));
#247=PRODUCT_RELATED_PRODUCT_CATEGORY('part','',(#24));
#248=PRODUCT_DEFINITION_FORMATION_WITH_SPECIFIED_SOURCE('','',#24,.NOT_KNOWN.);
#25=PRODUCT_DEFINITION('design','',#248,#246);
#23=PRODUCT_DEFINITION_SHAPE('','',#25);
#249=SHAPE_DEFINITION_REPRESENTATION(#23,#16);
#11=DRAUGHTING_MODEL('',(),#10);
#1=MECHANICAL_DESIGN_GEOMETRIC_PRESENTATION_REPRESENTATION('',(#26),#10);
ENDSEC;
END-ISO-10303-21;
