ISO-10303-21;
HEADER;

/* File generated by HOOPS Exchange Version 24.2.0 */

FILE_DESCRIPTION(('HOOPS Exchange Step'),'2;1');

FILE_NAME('C:\\github\\STEPoscope\\examples\\stepAP203\\mickeymouse1.step',
'2026-09-18T19:24:56+02:00',
('jorgen.engstrom'),
('Unknown organisation'),
'HOOPS Exchange 2024.2',
'HOOPS Exchange',
'Unknown authorisation');

FILE_SCHEMA( ('AP203_CONFIGURATION_CONTROLLED_3D_DESIGN_OF_MECHANICAL_PARTS_AND_ASSEMBLIES_MIM_LF') );

ENDSEC;

DATA;
#3=(NAMED_UNIT(*)PLANE_ANGLE_UNIT()SI_UNIT($,.RADIAN.));
#4=PLANE_ANGLE_MEASURE_WITH_UNIT(PLANE_ANGLE_MEASURE(0.0174532925),#3);
#5=(CONVERSION_BASED_UNIT('DEGREE',#4)NAMED_UNIT(#6)PLANE_ANGLE_UNIT());
#6=DIMENSIONAL_EXPONENTS(0.,0.,0.,0.,0.,0.,0.);
#7=(NAMED_UNIT(*)SI_UNIT($,.STERADIAN.)SOLID_ANGLE_UNIT());
#8=(LENGTH_UNIT()NAMED_UNIT(*)SI_UNIT(.MILLI.,.METRE.));
#9=UNCERTAINTY_MEASURE_WITH_UNIT(LENGTH_MEASURE(1.000000E-05),#8,'DISTANCE_ACCURACY_VALUE','Maximum Tolerance applied to model');
#10=(GEOMETRIC_REPRESENTATION_CONTEXT(3)GLOBAL_UNCERTAINTY_ASSIGNED_CONTEXT((#9))GLOBAL_UNIT_ASSIGNED_CONTEXT((#8,#5,#7))REPRESENTATION_CONTEXT('','root'));
#12=CARTESIAN_POINT('',(0.,0.,0.));
#13=DIRECTION('',(0.,0.,1.));
#14=DIRECTION('',(1.,0.,0.));
#15=AXIS2_PLACEMENT_3D('',#12,#13,#14);
#27=CARTESIAN_POINT('',(-51.230627812,24.872972659,160.311736261));
#28=DIRECTION('',(0.,1.,-0.));
#29=DIRECTION('',(0.,0.,1.));
#30=AXIS2_PLACEMENT_3D('',#27,#28,#29);
#31=PLANE('',#30);
#32=CARTESIAN_POINT('',(-27.42353384,24.872972659,0.));
#33=VERTEX_POINT('',#32);
#34=CARTESIAN_POINT('',(27.42353384,24.872972659,-0.));
#35=VERTEX_POINT('',#34);
#36=CARTESIAN_POINT('',(-27.42353384,24.872972659,0.));
#37=DIRECTION('',(1.,0.,-0.));
#38=VECTOR('',#37,54.847067679);
#39=LINE('',#36,#38);
#40=EDGE_CURVE('',#33,#35,#39,.T.);
#41=ORIENTED_EDGE('',*,*,#40,.F.);
#42=CARTESIAN_POINT('',(-27.42353384,24.872972659,160.311736261));
#43=VERTEX_POINT('',#42);
#44=CARTESIAN_POINT('',(-27.42353384,24.872972659,160.311736261));
#45=DIRECTION('',(0.,-0.,-1.));
#46=VECTOR('',#45,160.311736261);
#47=LINE('',#44,#46);
#48=EDGE_CURVE('',#43,#33,#47,.T.);
#49=ORIENTED_EDGE('',*,*,#48,.F.);
#50=CARTESIAN_POINT('',(27.42353384,24.872972659,160.311736261));
#51=VERTEX_POINT('',#50);
#52=CARTESIAN_POINT('',(-27.42353384,24.872972659,160.311736261));
#53=DIRECTION('',(1.,0.,-0.));
#54=VECTOR('',#53,54.847067679);
#55=LINE('',#52,#54);
#56=EDGE_CURVE('',#43,#51,#55,.T.);
#57=ORIENTED_EDGE('',*,*,#56,.T.);
#58=CARTESIAN_POINT('',(27.42353384,24.872972659,160.311736261));
#59=DIRECTION('',(0.,-0.,-1.));
#60=VECTOR('',#59,160.311736261);
#61=LINE('',#58,#60);
#62=EDGE_CURVE('',#51,#35,#61,.T.);
#63=ORIENTED_EDGE('',*,*,#62,.T.);
#64=EDGE_LOOP('',(#41,#49,#57,#63));
#65=FACE_BOUND('',#64,.T.);
#66=ADVANCED_FACE('',(#65),#31,.T.);
#67=CARTESIAN_POINT('',(-113.871225466,0.,160.311736261));
#68=DIRECTION('',(0.,-0.,-1.));
#69=DIRECTION('',(0.,1.,-0.));
#70=AXIS2_PLACEMENT_3D('',#67,#68,#69);
#71=CYLINDRICAL_SURFACE('',#70,89.954811747);
#72=CARTESIAN_POINT('',(-113.871225466,89.954811747,0.));
#73=VERTEX_POINT('',#72);
#74=CARTESIAN_POINT('',(-113.871225466,89.954811747,160.311736261));
#75=VERTEX_POINT('',#74);
#76=CARTESIAN_POINT('',(-113.871225466,89.954811747,0.));
#77=DIRECTION('',(-0.,0.,1.));
#78=VECTOR('',#77,160.311736261);
#79=LINE('',#76,#78);
#80=EDGE_CURVE('',#73,#75,#79,.T.);
#81=ORIENTED_EDGE('',*,*,#80,.T.);
#82=CARTESIAN_POINT('',(-113.871225466,0.,160.311736261));
#83=DIRECTION('',(0.,0.,1.));
#84=DIRECTION('',(1.,0.,-0.));
#85=AXIS2_PLACEMENT_3D('',#82,#83,#84);
#86=CIRCLE('',#85,89.954811747);
#87=EDGE_CURVE('',#43,#75,#86,.T.);
#88=ORIENTED_EDGE('',*,*,#87,.F.);
#89=ORIENTED_EDGE('',*,*,#48,.T.);
#90=CARTESIAN_POINT('',(-113.871225466,0.,0.));
#91=DIRECTION('',(0.,0.,1.));
#92=DIRECTION('',(1.,0.,-0.));
#93=AXIS2_PLACEMENT_3D('',#90,#91,#92);
#94=CIRCLE('',#93,89.954811747);
#95=EDGE_CURVE('',#33,#73,#94,.T.);
#96=ORIENTED_EDGE('',*,*,#95,.T.);
#97=EDGE_LOOP('',(#81,#88,#89,#96));
#98=FACE_BOUND('',#97,.T.);
#99=ADVANCED_FACE('',(#98),#71,.T.);
#100=CARTESIAN_POINT('',(51.230627812,-24.872972659,160.311736261));
#101=DIRECTION('',(0.,-1.,0.));
#102=DIRECTION('',(0.,-0.,-1.));
#103=AXIS2_PLACEMENT_3D('',#100,#101,#102);
#104=PLANE('',#103);
#105=CARTESIAN_POINT('',(27.42353384,-24.872972659,-0.));
#106=VERTEX_POINT('',#105);
#107=CARTESIAN_POINT('',(-27.42353384,-24.872972659,0.));
#108=VERTEX_POINT('',#107);
#109=CARTESIAN_POINT('',(27.42353384,-24.872972659,0.));
#110=DIRECTION('',(-1.,0.,0.));
#111=VECTOR('',#110,54.847067679);
#112=LINE('',#109,#111);
#113=EDGE_CURVE('',#106,#108,#112,.T.);
#114=ORIENTED_EDGE('',*,*,#113,.F.);
#115=CARTESIAN_POINT('',(27.42353384,-24.872972659,160.311736261));
#116=VERTEX_POINT('',#115);
#117=CARTESIAN_POINT('',(27.42353384,-24.872972659,160.311736261));
#118=DIRECTION('',(0.,-0.,-1.));
#119=VECTOR('',#118,160.311736261);
#120=LINE('',#117,#119);
#121=EDGE_CURVE('',#116,#106,#120,.T.);
#122=ORIENTED_EDGE('',*,*,#121,.F.);
#123=CARTESIAN_POINT('',(-27.42353384,-24.872972659,160.311736261));
#124=VERTEX_POINT('',#123);
#125=CARTESIAN_POINT('',(27.42353384,-24.872972659,160.311736261));
#126=DIRECTION('',(-1.,0.,0.));
#127=VECTOR('',#126,54.847067679);
#128=LINE('',#125,#127);
#129=EDGE_CURVE('',#116,#124,#128,.T.);
#130=ORIENTED_EDGE('',*,*,#129,.T.);
#131=CARTESIAN_POINT('',(-27.42353384,-24.872972659,160.311736261));
#132=DIRECTION('',(0.,-0.,-1.));
#133=VECTOR('',#132,160.311736261);
#134=LINE('',#131,#133);
#135=EDGE_CURVE('',#124,#108,#134,.T.);
#136=ORIENTED_EDGE('',*,*,#135,.T.);
#137=EDGE_LOOP('',(#114,#122,#130,#136));
#138=FACE_BOUND('',#137,.T.);
#139=ADVANCED_FACE('',(#138),#104,.T.);
#140=CARTESIAN_POINT('',(113.871225466,0.,160.311736261));
#141=DIRECTION('',(0.,-0.,-1.));
#142=DIRECTION('',(0.,1.,-0.));
#143=AXIS2_PLACEMENT_3D('',#140,#141,#142);
#144=CYLINDRICAL_SURFACE('',#143,89.954811747);
#145=CARTESIAN_POINT('',(113.871225466,89.954811747,-0.));
#146=VERTEX_POINT('',#145);
#147=CARTESIAN_POINT('',(113.871225466,89.954811747,160.311736261));
#148=VERTEX_POINT('',#147);
#149=CARTESIAN_POINT('',(113.871225466,89.954811747,-0.));
#150=DIRECTION('',(-0.,0.,1.));
#151=VECTOR('',#150,160.311736261);
#152=LINE('',#149,#151);
#153=EDGE_CURVE('',#146,#148,#152,.T.);
#154=ORIENTED_EDGE('',*,*,#153,.T.);
#155=CARTESIAN_POINT('',(113.871225466,0.,160.311736261));
#156=DIRECTION('',(0.,-0.,1.));
#157=DIRECTION('',(-1.,0.,0.));
#158=AXIS2_PLACEMENT_3D('',#155,#156,#157);
#159=CIRCLE('',#158,89.954811747);
#160=EDGE_CURVE('',#116,#148,#159,.T.);
#161=ORIENTED_EDGE('',*,*,#160,.F.);
#162=ORIENTED_EDGE('',*,*,#121,.T.);
#163=CARTESIAN_POINT('',(113.871225466,0.,-0.));
#164=DIRECTION('',(0.,-0.,1.));
#165=DIRECTION('',(-1.,0.,0.));
#166=AXIS2_PLACEMENT_3D('',#163,#164,#165);
#167=CIRCLE('',#166,89.954811747);
#168=EDGE_CURVE('',#106,#146,#167,.T.);
#169=ORIENTED_EDGE('',*,*,#168,.T.);
#170=EDGE_LOOP('',(#154,#161,#162,#169));
#171=FACE_BOUND('',#170,.T.);
#172=ADVANCED_FACE('',(#171),#144,.T.);
#173=CARTESIAN_POINT('',(0.,0.,160.311736261));
#174=DIRECTION('',(0.,0.,1.));
#175=DIRECTION('',(1.,0.,0.));
#176=AXIS2_PLACEMENT_3D('',#173,#174,#175);
#177=PLANE('',#176);
#178=ORIENTED_EDGE('',*,*,#56,.F.);
#179=ORIENTED_EDGE('',*,*,#87,.T.);
#180=CARTESIAN_POINT('',(-113.871225466,0.,160.311736261));
#181=DIRECTION('',(0.,0.,1.));
#182=DIRECTION('',(1.,0.,-0.));
#183=AXIS2_PLACEMENT_3D('',#180,#181,#182);
#184=CIRCLE('',#183,89.954811747);
#185=EDGE_CURVE('',#75,#124,#184,.T.);
#186=ORIENTED_EDGE('',*,*,#185,.T.);
#187=ORIENTED_EDGE('',*,*,#129,.F.);
#188=ORIENTED_EDGE('',*,*,#160,.T.);
#189=CARTESIAN_POINT('',(113.871225466,0.,160.311736261));
#190=DIRECTION('',(0.,-0.,1.));
#191=DIRECTION('',(-1.,0.,0.));
#192=AXIS2_PLACEMENT_3D('',#189,#190,#191);
#193=CIRCLE('',#192,89.954811747);
#194=EDGE_CURVE('',#148,#51,#193,.T.);
#195=ORIENTED_EDGE('',*,*,#194,.T.);
#196=EDGE_LOOP('',(#178,#179,#186,#187,#188,#195));
#197=FACE_BOUND('',#196,.T.);
#198=ADVANCED_FACE('',(#197),#177,.T.);
#199=CARTESIAN_POINT('',(0.,0.,0.));
#200=DIRECTION('',(0.,0.,1.));
#201=DIRECTION('',(1.,0.,0.));
#202=AXIS2_PLACEMENT_3D('',#199,#200,#201);
#203=PLANE('',#202);
#204=ORIENTED_EDGE('',*,*,#40,.T.);
#205=CARTESIAN_POINT('',(113.871225466,0.,-0.));
#206=DIRECTION('',(0.,-0.,1.));
#207=DIRECTION('',(-1.,0.,0.));
#208=AXIS2_PLACEMENT_3D('',#205,#206,#207);
#209=CIRCLE('',#208,89.954811747);
#210=EDGE_CURVE('',#146,#35,#209,.T.);
#211=ORIENTED_EDGE('',*,*,#210,.F.);
#212=ORIENTED_EDGE('',*,*,#168,.F.);
#213=ORIENTED_EDGE('',*,*,#113,.T.);
#214=CARTESIAN_POINT('',(-113.871225466,0.,0.));
#215=DIRECTION('',(0.,0.,1.));
#216=DIRECTION('',(1.,0.,-0.));
#217=AXIS2_PLACEMENT_3D('',#214,#215,#216);
#218=CIRCLE('',#217,89.954811747);
#219=EDGE_CURVE('',#73,#108,#218,.T.);
#220=ORIENTED_EDGE('',*,*,#219,.F.);
#221=ORIENTED_EDGE('',*,*,#95,.F.);
#222=EDGE_LOOP('',(#204,#211,#212,#213,#220,#221));
#223=FACE_BOUND('',#222,.T.);
#224=ADVANCED_FACE('',(#223),#203,.F.);
#225=CARTESIAN_POINT('',(-113.871225466,0.,160.311736261));
#226=DIRECTION('',(0.,-0.,-1.));
#227=DIRECTION('',(0.,1.,-0.));
#228=AXIS2_PLACEMENT_3D('',#225,#226,#227);
#229=CYLINDRICAL_SURFACE('',#228,89.954811747);
#230=ORIENTED_EDGE('',*,*,#80,.F.);
#231=ORIENTED_EDGE('',*,*,#219,.T.);
#232=ORIENTED_EDGE('',*,*,#135,.F.);
#233=ORIENTED_EDGE('',*,*,#185,.F.);
#234=EDGE_LOOP('',(#230,#231,#232,#233));
#235=FACE_BOUND('',#234,.T.);
#236=ADVANCED_FACE('',(#235),#229,.T.);
#237=CARTESIAN_POINT('',(113.871225466,0.,160.311736261));
#238=DIRECTION('',(0.,-0.,-1.));
#239=DIRECTION('',(0.,1.,-0.));
#240=AXIS2_PLACEMENT_3D('',#237,#238,#239);
#241=CYLINDRICAL_SURFACE('',#240,89.954811747);
#242=ORIENTED_EDGE('',*,*,#153,.F.);
#243=ORIENTED_EDGE('',*,*,#210,.T.);
#244=ORIENTED_EDGE('',*,*,#62,.F.);
#245=ORIENTED_EDGE('',*,*,#194,.F.);
#246=EDGE_LOOP('',(#242,#243,#244,#245));
#247=FACE_BOUND('',#246,.T.);
#248=ADVANCED_FACE('',(#247),#241,.T.);
#249=CLOSED_SHELL('',(#66,#99,#139,#172,#198,#224,#236,#248));
#250=MANIFOLD_SOLID_BREP('Extruded.001',#249);
#26=STYLED_ITEM('',(),#250);
#16=SHAPE_REPRESENTATION('root',(#15),#10);
#17=ADVANCED_BREP_SHAPE_REPRESENTATION('root',(#250),#10);
#258=SHAPE_REPRESENTATION_RELATIONSHIP('','',#16,#17);
#259=APPLICATION_CONTEXT('configuration controlled 3D design of mechanical parts and assemblies');
#260=APPLICATION_PROTOCOL_DEFINITION('international standard','configuration_control_3d_design_ed2_mim',2004,#259);
#261=PRODUCT_CONTEXT('',#259,'mechanical');
#262=PRODUCT_DEFINITION_CONTEXT('part definition',#259,'design');
#24=PRODUCT('root','root','',(#261));
#263=PRODUCT_RELATED_PRODUCT_CATEGORY('part','',(#24));
#264=PRODUCT_DEFINITION_FORMATION_WITH_SPECIFIED_SOURCE('','',#24,.NOT_KNOWN.);
#25=PRODUCT_DEFINITION('design','',#264,#262);
#23=PRODUCT_DEFINITION_SHAPE('','',#25);
#265=SHAPE_DEFINITION_REPRESENTATION(#23,#16);
#11=DRAUGHTING_MODEL('',(),#10);
#1=MECHANICAL_DESIGN_GEOMETRIC_PRESENTATION_REPRESENTATION('',(#26),#10);
ENDSEC;
END-ISO-10303-21;
