ISO-10303-21;
HEADER;
FILE_DESCRIPTION (( 'STEP AP203' ),
    '1' );
FILE_NAME ('slot1_ap203.STEP',
    '2026-09-10T18:23:04',
    ( '' ),
    ( '' ),
    'SwSTEP 2.0',
    'SolidWorks 2022',
    '' );
FILE_SCHEMA (( 'CONFIG_CONTROL_DESIGN' ));
ENDSEC;

DATA;
#1 = DIRECTION ( 'NONE',  ( 0.000000000000000000, 0.000000000000000000, 1.000000000000000000 ) ) ;
#2 = DIRECTION ( 'NONE',  ( 1.000000000000000000, 0.000000000000000000, 0.000000000000000000 ) ) ;
#3 = LINE ( 'NONE', #22, #230 ) ;
#4 = VECTOR ( 'NONE', #154, 1000.000000000000000 ) ;
#5 = EDGE_CURVE ( 'NONE', #164, #204, #41, .T. ) ;
#6 = DIRECTION ( 'NONE',  ( 0.000000000000000000, 1.000000000000000000, 0.000000000000000000 ) ) ;
#7 = DIRECTION ( 'NONE',  ( 0.000000000000000000, 0.000000000000000000, -1.000000000000000000 ) ) ;
#8 = DATE_AND_TIME ( #113, #221 ) ;
#9 = VECTOR ( 'NONE', #165, 1000.000000000000000 ) ;
#10 = APPROVAL_PERSON_ORGANIZATION ( #31, #19, #196 ) ;
#11 = PERSON_AND_ORGANIZATION_ROLE ( 'classification_officer' ) ;
#12 = COORDINATED_UNIVERSAL_TIME_OFFSET ( 8, 0, .BEHIND. ) ;
#13 = EDGE_CURVE ( 'NONE', #223, #152, #220, .T. ) ;
#14 = DIRECTION ( 'NONE',  ( -0.000000000000000000, -1.000000000000000000, -0.000000000000000000 ) ) ;
#15 = APPLICATION_CONTEXT ( 'configuration controlled 3d designs of mechanical parts and assemblies' ) ;
#16 = DIRECTION ( 'NONE',  ( 0.000000000000000000, 0.000000000000000000, -1.000000000000000000 ) ) ;
#17 = ORIENTED_EDGE ( 'NONE', *, *, #13, .F. ) ;
#18 = DIRECTION ( 'NONE',  ( 0.000000000000000000, 1.000000000000000000, 0.000000000000000000 ) ) ;
#19 = APPROVAL ( #147, 'UNSPECIFIED' ) ;
#20 = FACE_OUTER_BOUND ( 'NONE', #239, .T. ) ;
#21 = CC_DESIGN_APPROVAL ( #19, ( #155 ) ) ;
#22 = CARTESIAN_POINT ( 'NONE',  ( 25.00000000000000000, 15.00000000000000000, 6.999999999999999112 ) ) ;
#23 = CARTESIAN_POINT ( 'NONE',  ( 25.00000000000000000, 0.000000000000000000, -6.999999999999999112 ) ) ;
#24 = PRODUCT_RELATED_PRODUCT_CATEGORY ( 'detail', '', ( #87 ) ) ;
#25 = MANIFOLD_SOLID_BREP ( 'Boss-Extrude1', #132 ) ;
#26 = DIRECTION ( 'NONE',  ( 0.000000000000000000, 1.000000000000000000, 0.000000000000000000 ) ) ;
#27 = PERSON_AND_ORGANIZATION ( #171, #229 ) ;
#28 = CIRCLE ( 'NONE', #201, 6.999999999999999112 ) ;
#29 = PERSON_AND_ORGANIZATION_ROLE ( 'creator' ) ;
#30 = EDGE_LOOP ( 'NONE', ( #91, #167, #74, #169 ) ) ;
#31 = PERSON_AND_ORGANIZATION ( #171, #229 ) ;
#32 = APPROVAL_DATE_TIME ( #197, #19 ) ;
#33 = ORIENTED_EDGE ( 'NONE', *, *, #126, .T. ) ;
#34 = LOCAL_TIME ( 11, 23, 4.000000000000000000, #92 ) ;
#35 = AXIS2_PLACEMENT_3D ( 'NONE', #187, #202, #185 ) ;
#36 = DIRECTION ( 'NONE',  ( -1.000000000000000000, 0.000000000000000000, -0.000000000000000000 ) ) ;
#37 = APPROVAL ( #163, 'UNSPECIFIED' ) ;
#38 = LINE ( 'NONE', #120, #4 ) ;
#39 = EDGE_LOOP ( 'NONE', ( #33, #134, #181, #198 ) ) ;
#40 = AXIS2_PLACEMENT_3D ( 'NONE', #192, #6, #100 ) ;
#41 = LINE ( 'NONE', #186, #75 ) ;
#42 = EDGE_LOOP ( 'NONE', ( #151, #119, #161, #129 ) ) ;
#43 = EDGE_CURVE ( 'NONE', #114, #170, #44, .T. ) ;
#44 = CIRCLE ( 'NONE', #108, 6.999999999999999112 ) ;
#45 = FACE_OUTER_BOUND ( 'NONE', #233, .T. ) ;
#46 = PERSON_AND_ORGANIZATION ( #171, #229 ) ;
#47 = LINE ( 'NONE', #83, #99 ) ;
#48 = DIRECTION ( 'NONE',  ( 0.000000000000000000, 0.000000000000000000, 1.000000000000000000 ) ) ;
#49 = PERSON_AND_ORGANIZATION ( #171, #229 ) ;
#50 = PERSON_AND_ORGANIZATION_ROLE ( 'design_supplier' ) ;
#51 = VERTEX_POINT ( 'NONE', #116 ) ;
#52 = VECTOR ( 'NONE', #2, 1000.000000000000000 ) ;
#53 = DATE_TIME_ROLE ( 'classification_date' ) ;
#54 = CALENDAR_DATE ( 2026, 10, 9 ) ;
#55 = APPLICATION_CONTEXT ( 'configuration controlled 3d designs of mechanical parts and assemblies' ) ;
#56 = LOCAL_TIME ( 11, 23, 4.000000000000000000, #146 ) ;
#57 = PLANE ( 'NONE',  #35 ) ;
#58 = ORIENTED_EDGE ( 'NONE', *, *, #199, .T. ) ;
#59 = ORIENTED_EDGE ( 'NONE', *, *, #5, .T. ) ;
#60 = UNCERTAINTY_MEASURE_WITH_UNIT (LENGTH_MEASURE( 1.000000000000000082E-05 ), #139, 'distance_accuracy_value', 'NONE');
#61 = LINE ( 'NONE', #95, #174 ) ;
#62 = ADVANCED_FACE ( 'NONE', ( #98 ), #57, .F. ) ;
#63 = CARTESIAN_POINT ( 'NONE',  ( 0.000000000000000000, 15.00000000000000000, -6.999999999999999112 ) ) ;
#64 = DIRECTION ( 'NONE',  ( 0.000000000000000000, 0.000000000000000000, 1.000000000000000000 ) ) ;
#65 = APPLICATION_PROTOCOL_DEFINITION ( 'international standard', 'config_control_design', 1994, #55 ) ;
#66 = CYLINDRICAL_SURFACE ( 'NONE', #236, 6.999999999999999112 ) ;
#67 = CARTESIAN_POINT ( 'NONE',  ( 0.000000000000000000, 15.00000000000000000, 6.999999999999999112 ) ) ;
#68 = CC_DESIGN_PERSON_AND_ORGANIZATION_ASSIGNMENT ( #160, #50, ( #88 ) ) ;
#69 = AXIS2_PLACEMENT_3D ( 'NONE', #210, #48, #144 ) ;
#70 = VECTOR ( 'NONE', #14, 1000.000000000000000 ) ;
#71 = ORIENTED_EDGE ( 'NONE', *, *, #43, .T. ) ;
#72 = CALENDAR_DATE ( 2026, 10, 9 ) ;
#73 = DATE_TIME_ROLE ( 'creation_date' ) ;
#74 = ORIENTED_EDGE ( 'NONE', *, *, #215, .F. ) ;
#75 = VECTOR ( 'NONE', #77, 1000.000000000000000 ) ;
#76 = DIRECTION ( 'NONE',  ( -0.000000000000000000, -1.000000000000000000, -0.000000000000000000 ) ) ;
#77 = DIRECTION ( 'NONE',  ( -0.000000000000000000, -1.000000000000000000, -0.000000000000000000 ) ) ;
#78 = ADVANCED_BREP_SHAPE_REPRESENTATION ( 'slot1_ap203', ( #25, #188 ), #159 ) ;
#79 = CARTESIAN_POINT ( 'NONE',  ( 0.000000000000000000, 15.00000000000000000, 6.999999999999999112 ) ) ;
#80 = ORIENTED_EDGE ( 'NONE', *, *, #199, .F. ) ;
#81 = ADVANCED_FACE ( 'NONE', ( #153 ), #97, .T. ) ;
#82 = DIRECTION ( 'NONE',  ( -0.000000000000000000, -1.000000000000000000, -0.000000000000000000 ) ) ;
#83 = CARTESIAN_POINT ( 'NONE',  ( 0.000000000000000000, 15.00000000000000000, -6.999999999999999112 ) ) ;
#84 = DIRECTION ( 'NONE',  ( 0.000000000000000000, 0.000000000000000000, 1.000000000000000000 ) ) ;
#85 = CARTESIAN_POINT ( 'NONE',  ( 0.000000000000000000, 0.000000000000000000, -6.999999999999999112 ) ) ;
#86 = EDGE_CURVE ( 'NONE', #138, #204, #61, .T. ) ;
#87 = PRODUCT ( 'slot1_ap203', 'slot1_ap203', '', ( #209 ) ) ;
#88 = PRODUCT_DEFINITION_FORMATION_WITH_SPECIFIED_SOURCE ( 'ANY', '', #87, .NOT_KNOWN. ) ;
#89 = COORDINATED_UNIVERSAL_TIME_OFFSET ( 8, 0, .BEHIND. ) ;
#90 = PERSON_AND_ORGANIZATION ( #171, #229 ) ;
#91 = ORIENTED_EDGE ( 'NONE', *, *, #86, .T. ) ;
#92 = COORDINATED_UNIVERSAL_TIME_OFFSET ( 8, 0, .BEHIND. ) ;
#93 = LINE ( 'NONE', #136, #9 ) ;
#94 = DESIGN_CONTEXT ( 'detailed design', #15, 'design' ) ;
#95 = CARTESIAN_POINT ( 'NONE',  ( 0.000000000000000000, 0.000000000000000000, -6.999999999999999112 ) ) ;
#96 = DIRECTION ( 'NONE',  ( 0.000000000000000000, 0.000000000000000000, -1.000000000000000000 ) ) ;
#97 = CYLINDRICAL_SURFACE ( 'NONE', #118, 6.999999999999999112 ) ;
#98 = FACE_OUTER_BOUND ( 'NONE', #42, .T. ) ;
#99 = VECTOR ( 'NONE', #156, 1000.000000000000000 ) ;
#100 = DIRECTION ( 'NONE',  ( 0.000000000000000000, -0.000000000000000000, 1.000000000000000000 ) ) ;
#101 = CIRCLE ( 'NONE', #158, 6.999999999999999112 ) ;
#102 = EDGE_CURVE ( 'NONE', #170, #138, #38, .T. ) ;
#103 = DIRECTION ( 'NONE',  ( 0.000000000000000000, 1.000000000000000000, 0.000000000000000000 ) ) ;
#104 = DIRECTION ( 'NONE',  ( 0.000000000000000000, 0.000000000000000000, 1.000000000000000000 ) ) ;
#105 = ADVANCED_FACE ( 'NONE', ( #20 ), #225, .F. ) ;
#106 = CARTESIAN_POINT ( 'NONE',  ( 0.000000000000000000, 15.00000000000000000, 0.000000000000000000 ) ) ;
#107 = PERSON_AND_ORGANIZATION_ROLE ( 'creator' ) ;
#108 = AXIS2_PLACEMENT_3D ( 'NONE', #172, #18, #240 ) ;
#109 = PRODUCT_DEFINITION_SHAPE ( 'NONE', 'NONE',  #124 ) ;
#110 = APPROVAL ( #130, 'UNSPECIFIED' ) ;
#111 = DATE_AND_TIME ( #72, #34 ) ;
#112 = CC_DESIGN_PERSON_AND_ORGANIZATION_ASSIGNMENT ( #27, #107, ( #88 ) ) ;
#113 = CALENDAR_DATE ( 2026, 10, 9 ) ;
#114 = VERTEX_POINT ( 'NONE', #183 ) ;
#115 = ORIENTED_EDGE ( 'NONE', *, *, #215, .T. ) ;
#116 = CARTESIAN_POINT ( 'NONE',  ( 25.00000000000000000, 0.000000000000000000, 6.999999999999999112 ) ) ;
#117 = EDGE_CURVE ( 'NONE', #152, #51, #93, .T. ) ;
#118 = AXIS2_PLACEMENT_3D ( 'NONE', #224, #76, #96 ) ;
#119 = ORIENTED_EDGE ( 'NONE', *, *, #86, .F. ) ;
#120 = CARTESIAN_POINT ( 'NONE',  ( 25.00000000000000000, 15.00000000000000000, -6.999999999999999112 ) ) ;
#121 = LOCAL_TIME ( 11, 23, 4.000000000000000000, #89 ) ;
#122 = PERSON_AND_ORGANIZATION_ROLE ( 'design_owner' ) ;
#123 = PLANE ( 'NONE',  #40 ) ;
#124 = PRODUCT_DEFINITION ( 'UNKNOWN', '', #88, #94 ) ;
#125 = CARTESIAN_POINT ( 'NONE',  ( 0.000000000000000000, 15.00000000000000000, 6.999999999999999112 ) ) ;
#126 = EDGE_CURVE ( 'NONE', #51, #138, #148, .T. ) ;
#127 = APPROVAL_ROLE ( '' ) ;
#128 = SECURITY_CLASSIFICATION_LEVEL ( 'unclassified' ) ;
#129 = ORIENTED_EDGE ( 'NONE', *, *, #117, .F. ) ;
#130 = APPROVAL_STATUS ( 'not_yet_approved' ) ;
#131 = ORIENTED_EDGE ( 'NONE', *, *, #13, .T. ) ;
#132 = CLOSED_SHELL ( 'NONE', ( #206, #105, #81, #135, #241, #62 ) ) ;
#133 = AXIS2_PLACEMENT_3D ( 'NONE', #203, #207, #1 ) ;
#134 = ORIENTED_EDGE ( 'NONE', *, *, #102, .F. ) ;
#135 = ADVANCED_FACE ( 'NONE', ( #191 ), #211, .F. ) ;
#136 = CARTESIAN_POINT ( 'NONE',  ( 0.000000000000000000, 0.000000000000000000, 6.999999999999999112 ) ) ;
#137 = ORIENTED_EDGE ( 'NONE', *, *, #212, .F. ) ;
#138 = VERTEX_POINT ( 'NONE', #23 ) ;
#139 =( LENGTH_UNIT ( ) NAMED_UNIT ( * ) SI_UNIT ( .MILLI., .METRE. ) );
#140 = DIRECTION ( 'NONE',  ( 1.000000000000000000, 0.000000000000000000, 0.000000000000000000 ) ) ;
#141 = CC_DESIGN_APPROVAL ( #110, ( #88 ) ) ;
#142 =( NAMED_UNIT ( * ) PLANE_ANGLE_UNIT ( ) SI_UNIT ( $, .RADIAN. ) );
#143 = DIRECTION ( 'NONE',  ( -0.000000000000000000, -1.000000000000000000, -0.000000000000000000 ) ) ;
#144 = DIRECTION ( 'NONE',  ( 1.000000000000000000, 0.000000000000000000, -0.000000000000000000 ) ) ;
#145 = EDGE_CURVE ( 'NONE', #204, #152, #101, .T. ) ;
#146 = COORDINATED_UNIVERSAL_TIME_OFFSET ( 8, 0, .BEHIND. ) ;
#147 = APPROVAL_STATUS ( 'not_yet_approved' ) ;
#148 = CIRCLE ( 'NONE', #133, 6.999999999999999112 ) ;
#149 = CC_DESIGN_PERSON_AND_ORGANIZATION_ASSIGNMENT ( #90, #11, ( #155 ) ) ;
#150 = ORIENTED_EDGE ( 'NONE', *, *, #145, .T. ) ;
#151 = ORIENTED_EDGE ( 'NONE', *, *, #145, .F. ) ;
#152 = VERTEX_POINT ( 'NONE', #157 ) ;
#153 = FACE_OUTER_BOUND ( 'NONE', #39, .T. ) ;
#154 = DIRECTION ( 'NONE',  ( -0.000000000000000000, -1.000000000000000000, -0.000000000000000000 ) ) ;
#155 = SECURITY_CLASSIFICATION ( '', '', #128 ) ;
#156 = DIRECTION ( 'NONE',  ( -1.000000000000000000, -0.000000000000000000, -0.000000000000000000 ) ) ;
#157 = CARTESIAN_POINT ( 'NONE',  ( 0.000000000000000000, 0.000000000000000000, 6.999999999999999112 ) ) ;
#158 = AXIS2_PLACEMENT_3D ( 'NONE', #177, #103, #84 ) ;
#159 =( GEOMETRIC_REPRESENTATION_CONTEXT ( 3 ) GLOBAL_UNCERTAINTY_ASSIGNED_CONTEXT ( ( #60 ) ) GLOBAL_UNIT_ASSIGNED_CONTEXT ( ( #139, #142, #228 ) ) REPRESENTATION_CONTEXT ( 'NONE', 'WORKASPACE' ) );
#160 = PERSON_AND_ORGANIZATION ( #171, #229 ) ;
#161 = ORIENTED_EDGE ( 'NONE', *, *, #126, .F. ) ;
#162 = CALENDAR_DATE ( 2026, 10, 9 ) ;
#163 = APPROVAL_STATUS ( 'not_yet_approved' ) ;
#164 = VERTEX_POINT ( 'NONE', #63 ) ;
#165 = DIRECTION ( 'NONE',  ( 1.000000000000000000, 0.000000000000000000, 0.000000000000000000 ) ) ;
#166 = CC_DESIGN_PERSON_AND_ORGANIZATION_ASSIGNMENT ( #46, #122, ( #87 ) ) ;
#167 = ORIENTED_EDGE ( 'NONE', *, *, #5, .F. ) ;
#168 = LOCAL_TIME ( 11, 23, 4.000000000000000000, #217 ) ;
#169 = ORIENTED_EDGE ( 'NONE', *, *, #102, .T. ) ;
#170 = VERTEX_POINT ( 'NONE', #176 ) ;
#171 = PERSON ( 'UNSPECIFIED', 'UNSPECIFIED', 'UNSPECIFIED', ('UNSPECIFIED'), ('UNSPECIFIED'), ('UNSPECIFIED') ) ;
#172 = CARTESIAN_POINT ( 'NONE',  ( 25.00000000000000000, 15.00000000000000000, 0.000000000000000000 ) ) ;
#173 = AXIS2_PLACEMENT_3D ( 'NONE', #200, #16, #36 ) ;
#174 = VECTOR ( 'NONE', #222, 1000.000000000000000 ) ;
#175 = LINE ( 'NONE', #125, #52 ) ;
#176 = CARTESIAN_POINT ( 'NONE',  ( 25.00000000000000000, 15.00000000000000000, -6.999999999999999112 ) ) ;
#177 = CARTESIAN_POINT ( 'NONE',  ( 0.000000000000000000, 0.000000000000000000, 0.000000000000000000 ) ) ;
#178 = APPROVAL_PERSON_ORGANIZATION ( #193, #37, #213 ) ;
#179 = PERSON_AND_ORGANIZATION ( #171, #229 ) ;
#180 = EDGE_CURVE ( 'NONE', #223, #114, #175, .T. ) ;
#181 = ORIENTED_EDGE ( 'NONE', *, *, #43, .F. ) ;
#182 = SHAPE_DEFINITION_REPRESENTATION ( #109, #78 ) ;
#183 = CARTESIAN_POINT ( 'NONE',  ( 25.00000000000000000, 15.00000000000000000, 6.999999999999999112 ) ) ;
#184 = ORIENTED_EDGE ( 'NONE', *, *, #180, .T. ) ;
#185 = DIRECTION ( 'NONE',  ( 0.000000000000000000, -0.000000000000000000, 1.000000000000000000 ) ) ;
#186 = CARTESIAN_POINT ( 'NONE',  ( 0.000000000000000000, 15.00000000000000000, -6.999999999999999112 ) ) ;
#187 = CARTESIAN_POINT ( 'NONE',  ( 0.000000000000000000, 0.000000000000000000, 0.000000000000000000 ) ) ;
#188 = AXIS2_PLACEMENT_3D ( 'NONE', #226, #64, #140 ) ;
#189 = CC_DESIGN_APPROVAL ( #37, ( #124 ) ) ;
#190 = CC_DESIGN_DATE_AND_TIME_ASSIGNMENT ( #111, #73, ( #124 ) ) ;
#191 = FACE_OUTER_BOUND ( 'NONE', #30, .T. ) ;
#192 = CARTESIAN_POINT ( 'NONE',  ( 0.000000000000000000, 15.00000000000000000, 0.000000000000000000 ) ) ;
#193 = PERSON_AND_ORGANIZATION ( #171, #229 ) ;
#194 = APPROVAL_DATE_TIME ( #8, #110 ) ;
#195 = APPROVAL_DATE_TIME ( #216, #37 ) ;
#196 = APPROVAL_ROLE ( '' ) ;
#197 = DATE_AND_TIME ( #54, #168 ) ;
#198 = ORIENTED_EDGE ( 'NONE', *, *, #212, .T. ) ;
#199 = EDGE_CURVE ( 'NONE', #164, #223, #28, .T. ) ;
#200 = CARTESIAN_POINT ( 'NONE',  ( 0.000000000000000000, 15.00000000000000000, 6.999999999999999112 ) ) ;
#201 = AXIS2_PLACEMENT_3D ( 'NONE', #205, #26, #104 ) ;
#202 = DIRECTION ( 'NONE',  ( 0.000000000000000000, 1.000000000000000000, 0.000000000000000000 ) ) ;
#203 = CARTESIAN_POINT ( 'NONE',  ( 25.00000000000000000, 0.000000000000000000, 0.000000000000000000 ) ) ;
#204 = VERTEX_POINT ( 'NONE', #85 ) ;
#205 = CARTESIAN_POINT ( 'NONE',  ( 0.000000000000000000, 15.00000000000000000, 0.000000000000000000 ) ) ;
#206 = ADVANCED_FACE ( 'NONE', ( #45 ), #66, .T. ) ;
#207 = DIRECTION ( 'NONE',  ( 0.000000000000000000, 1.000000000000000000, 0.000000000000000000 ) ) ;
#208 = APPROVAL_PERSON_ORGANIZATION ( #179, #110, #127 ) ;
#209 = MECHANICAL_CONTEXT ( 'NONE', #55, 'mechanical' ) ;
#210 = CARTESIAN_POINT ( 'NONE',  ( 0.000000000000000000, 15.00000000000000000, -6.999999999999999112 ) ) ;
#211 = PLANE ( 'NONE',  #69 ) ;
#212 = EDGE_CURVE ( 'NONE', #114, #51, #3, .T. ) ;
#213 = APPROVAL_ROLE ( '' ) ;
#214 = CALENDAR_DATE ( 2026, 10, 9 ) ;
#215 = EDGE_CURVE ( 'NONE', #170, #164, #47, .T. ) ;
#216 = DATE_AND_TIME ( #214, #56 ) ;
#217 = COORDINATED_UNIVERSAL_TIME_OFFSET ( 8, 0, .BEHIND. ) ;
#218 = CC_DESIGN_DATE_AND_TIME_ASSIGNMENT ( #234, #53, ( #155 ) ) ;
#219 = CC_DESIGN_SECURITY_CLASSIFICATION ( #155, ( #88 ) ) ;
#220 = LINE ( 'NONE', #79, #70 ) ;
#221 = LOCAL_TIME ( 11, 23, 4.000000000000000000, #12 ) ;
#222 = DIRECTION ( 'NONE',  ( -1.000000000000000000, -0.000000000000000000, -0.000000000000000000 ) ) ;
#223 = VERTEX_POINT ( 'NONE', #67 ) ;
#224 = CARTESIAN_POINT ( 'NONE',  ( 25.00000000000000000, 15.00000000000000000, 0.000000000000000000 ) ) ;
#225 = PLANE ( 'NONE',  #173 ) ;
#226 = CARTESIAN_POINT ( 'NONE',  ( 0.000000000000000000, 0.000000000000000000, 0.000000000000000000 ) ) ;
#227 = FACE_OUTER_BOUND ( 'NONE', #235, .T. ) ;
#228 =( NAMED_UNIT ( * ) SI_UNIT ( $, .STERADIAN. ) SOLID_ANGLE_UNIT ( ) );
#229 = ORGANIZATION ( 'UNSPECIFIED', 'UNSPECIFIED', '' ) ;
#230 = VECTOR ( 'NONE', #82, 1000.000000000000000 ) ;
#231 = APPLICATION_PROTOCOL_DEFINITION ( 'international standard', 'config_control_design', 1994, #15 ) ;
#232 = CC_DESIGN_PERSON_AND_ORGANIZATION_ASSIGNMENT ( #49, #29, ( #124 ) ) ;
#233 = EDGE_LOOP ( 'NONE', ( #150, #17, #80, #59 ) ) ;
#234 = DATE_AND_TIME ( #162, #121 ) ;
#235 = EDGE_LOOP ( 'NONE', ( #58, #184, #71, #115 ) ) ;
#236 = AXIS2_PLACEMENT_3D ( 'NONE', #106, #143, #7 ) ;
#237 = ORIENTED_EDGE ( 'NONE', *, *, #117, .T. ) ;
#238 = ORIENTED_EDGE ( 'NONE', *, *, #180, .F. ) ;
#239 = EDGE_LOOP ( 'NONE', ( #237, #137, #238, #131 ) ) ;
#240 = DIRECTION ( 'NONE',  ( 0.000000000000000000, 0.000000000000000000, 1.000000000000000000 ) ) ;
#241 = ADVANCED_FACE ( 'NONE', ( #227 ), #123, .T. ) ;
ENDSEC;
END-ISO-10303-21;
