ISO-10303-21;
HEADER;

/* File generated by HOOPS Exchange Version 24.2.0 */

FILE_DESCRIPTION(('HOOPS Exchange Step'),'2;1');

FILE_NAME('C:\\github\\STEPoscope\\examples\\stepAP203\\techno.step',
'2026-09-18T19:17:50+02:00',
('jorgen.engstrom'),
('Unknown organisation'),
'HOOPS Exchange 2024.2',
'HOOPS Exchange',
'Unknown authorisation');

FILE_SCHEMA( ('AP203_CONFIGURATION_CONTROLLED_3D_DESIGN_OF_MECHANICAL_PARTS_AND_ASSEMBLIES_MIM_LF') );

ENDSEC;

DATA;
#3=(NAMED_UNIT(*)PLANE_ANGLE_UNIT()SI_UNIT($,.RADIAN.));
#4=PLANE_ANGLE_MEASURE_WITH_UNIT(PLANE_ANGLE_MEASURE(0.0174532925),#3);
#5=(CONVERSION_BASED_UNIT('DEGREE',#4)NAMED_UNIT(#6)PLANE_ANGLE_UNIT());
#6=DIMENSIONAL_EXPONENTS(0.,0.,0.,0.,0.,0.,0.);
#7=(NAMED_UNIT(*)SI_UNIT($,.STERADIAN.)SOLID_ANGLE_UNIT());
#8=(LENGTH_UNIT()NAMED_UNIT(*)SI_UNIT(.MILLI.,.METRE.));
#9=UNCERTAINTY_MEASURE_WITH_UNIT(LENGTH_MEASURE(1.000000E-05),#8,'DISTANCE_ACCURACY_VALUE','Maximum Tolerance applied to model');
#10=(GEOMETRIC_REPRESENTATION_CONTEXT(3)GLOBAL_UNCERTAINTY_ASSIGNED_CONTEXT((#9))GLOBAL_UNIT_ASSIGNED_CONTEXT((#8,#5,#7))REPRESENTATION_CONTEXT('','root'));
#12=CARTESIAN_POINT('',(0.,0.,0.));
#13=DIRECTION('',(0.,0.,1.));
#14=DIRECTION('',(1.,0.,0.));
#15=AXIS2_PLACEMENT_3D('',#12,#13,#14);
#27=CARTESIAN_POINT('',(150.,150.,20.));
#28=DIRECTION('',(0.,-1.,0.));
#29=DIRECTION('',(0.,-0.,-1.));
#30=AXIS2_PLACEMENT_3D('',#27,#28,#29);
#31=PLANE('',#30);
#32=CARTESIAN_POINT('',(121.608275892,150.,20.));
#33=VERTEX_POINT('',#32);
#34=CARTESIAN_POINT('',(0.,150.,20.));
#35=VERTEX_POINT('',#34);
#36=CARTESIAN_POINT('',(121.608275892,150.,20.));
#37=DIRECTION('',(-1.,0.,0.));
#38=VECTOR('',#37,121.608275892);
#39=LINE('',#36,#38);
#40=EDGE_CURVE('',#33,#35,#39,.T.);
#41=ORIENTED_EDGE('',*,*,#40,.F.);
#42=CARTESIAN_POINT('',(121.608275892,150.,0.));
#43=VERTEX_POINT('',#42);
#44=CARTESIAN_POINT('',(121.608275892,150.,20.));
#45=DIRECTION('',(0.,-0.,-1.));
#46=VECTOR('',#45,20.);
#47=LINE('',#44,#46);
#48=EDGE_CURVE('',#33,#43,#47,.T.);
#49=ORIENTED_EDGE('',*,*,#48,.T.);
#50=CARTESIAN_POINT('',(0.,150.,0.));
#51=VERTEX_POINT('',#50);
#52=CARTESIAN_POINT('',(121.608275892,150.,0.));
#53=DIRECTION('',(-1.,0.,0.));
#54=VECTOR('',#53,121.608275892);
#55=LINE('',#52,#54);
#56=EDGE_CURVE('',#43,#51,#55,.T.);
#57=ORIENTED_EDGE('',*,*,#56,.T.);
#58=CARTESIAN_POINT('',(0.,150.,20.));
#59=DIRECTION('',(0.,-0.,-1.));
#60=VECTOR('',#59,20.);
#61=LINE('',#58,#60);
#62=EDGE_CURVE('',#35,#51,#61,.T.);
#63=ORIENTED_EDGE('',*,*,#62,.F.);
#64=EDGE_LOOP('',(#41,#49,#57,#63));
#65=FACE_BOUND('',#64,.T.);
#66=ADVANCED_FACE('',(#65),#31,.F.);
#67=CARTESIAN_POINT('',(0.,150.,20.));
#68=DIRECTION('',(1.,0.,0.));
#69=DIRECTION('',(0.,0.,-1.));
#70=AXIS2_PLACEMENT_3D('',#67,#68,#69);
#71=PLANE('',#70);
#72=CARTESIAN_POINT('',(0.,0.,0.));
#73=VERTEX_POINT('',#72);
#74=CARTESIAN_POINT('',(0.,150.,0.));
#75=DIRECTION('',(0.,-1.,0.));
#76=VECTOR('',#75,150.);
#77=LINE('',#74,#76);
#78=EDGE_CURVE('',#51,#73,#77,.T.);
#79=ORIENTED_EDGE('',*,*,#78,.T.);
#80=CARTESIAN_POINT('',(0.,0.,20.));
#81=VERTEX_POINT('',#80);
#82=CARTESIAN_POINT('',(0.,0.,20.));
#83=DIRECTION('',(0.,-0.,-1.));
#84=VECTOR('',#83,20.);
#85=LINE('',#82,#84);
#86=EDGE_CURVE('',#81,#73,#85,.T.);
#87=ORIENTED_EDGE('',*,*,#86,.F.);
#88=CARTESIAN_POINT('',(0.,150.,20.));
#89=DIRECTION('',(0.,-1.,0.));
#90=VECTOR('',#89,150.);
#91=LINE('',#88,#90);
#92=EDGE_CURVE('',#35,#81,#91,.T.);
#93=ORIENTED_EDGE('',*,*,#92,.F.);
#94=ORIENTED_EDGE('',*,*,#62,.T.);
#95=EDGE_LOOP('',(#79,#87,#93,#94));
#96=FACE_BOUND('',#95,.T.);
#97=ADVANCED_FACE('',(#96),#71,.F.);
#98=CARTESIAN_POINT('',(0.,0.,20.));
#99=DIRECTION('',(0.,1.,-0.));
#100=DIRECTION('',(0.,0.,1.));
#101=AXIS2_PLACEMENT_3D('',#98,#99,#100);
#102=PLANE('',#101);
#103=CARTESIAN_POINT('',(118.163505169,0.,0.));
#104=VERTEX_POINT('',#103);
#105=CARTESIAN_POINT('',(0.,0.,0.));
#106=DIRECTION('',(1.,0.,0.));
#107=VECTOR('',#106,118.163505169);
#108=LINE('',#105,#107);
#109=EDGE_CURVE('',#73,#104,#108,.T.);
#110=ORIENTED_EDGE('',*,*,#109,.T.);
#111=CARTESIAN_POINT('',(118.163505169,0.,20.));
#112=VERTEX_POINT('',#111);
#113=CARTESIAN_POINT('',(118.163505169,0.,0.));
#114=DIRECTION('',(-0.,0.,1.));
#115=VECTOR('',#114,20.);
#116=LINE('',#113,#115);
#117=EDGE_CURVE('',#104,#112,#116,.T.);
#118=ORIENTED_EDGE('',*,*,#117,.T.);
#119=CARTESIAN_POINT('',(0.,0.,20.));
#120=DIRECTION('',(1.,0.,-0.));
#121=VECTOR('',#120,118.163505169);
#122=LINE('',#119,#121);
#123=EDGE_CURVE('',#81,#112,#122,.T.);
#124=ORIENTED_EDGE('',*,*,#123,.F.);
#125=ORIENTED_EDGE('',*,*,#86,.T.);
#126=EDGE_LOOP('',(#110,#118,#124,#125));
#127=FACE_BOUND('',#126,.T.);
#128=ADVANCED_FACE('',(#127),#102,.F.);
#129=CARTESIAN_POINT('',(150.,0.,20.));
#130=DIRECTION('',(-1.,0.,0.));
#131=DIRECTION('',(0.,0.,1.));
#132=AXIS2_PLACEMENT_3D('',#129,#130,#131);
#133=PLANE('',#132);
#134=CARTESIAN_POINT('',(150.,31.836494831,0.));
#135=VERTEX_POINT('',#134);
#136=CARTESIAN_POINT('',(150.,121.608275892,0.));
#137=VERTEX_POINT('',#136);
#138=CARTESIAN_POINT('',(150.,31.836494831,0.));
#139=DIRECTION('',(0.,1.,0.));
#140=VECTOR('',#139,89.77178106);
#141=LINE('',#138,#140);
#142=EDGE_CURVE('',#135,#137,#141,.T.);
#143=ORIENTED_EDGE('',*,*,#142,.T.);
#144=CARTESIAN_POINT('',(150.,121.608275892,20.));
#145=VERTEX_POINT('',#144);
#146=CARTESIAN_POINT('',(150.,121.608275892,0.));
#147=DIRECTION('',(0.,0.,1.));
#148=VECTOR('',#147,20.);
#149=LINE('',#146,#148);
#150=EDGE_CURVE('',#137,#145,#149,.T.);
#151=ORIENTED_EDGE('',*,*,#150,.T.);
#152=CARTESIAN_POINT('',(150.,31.836494831,20.));
#153=VERTEX_POINT('',#152);
#154=CARTESIAN_POINT('',(150.,31.836494831,20.));
#155=DIRECTION('',(0.,1.,0.));
#156=VECTOR('',#155,89.77178106);
#157=LINE('',#154,#156);
#158=EDGE_CURVE('',#153,#145,#157,.T.);
#159=ORIENTED_EDGE('',*,*,#158,.F.);
#160=CARTESIAN_POINT('',(150.,31.836494831,20.));
#161=DIRECTION('',(0.,-0.,-1.));
#162=VECTOR('',#161,20.);
#163=LINE('',#160,#162);
#164=EDGE_CURVE('',#153,#135,#163,.T.);
#165=ORIENTED_EDGE('',*,*,#164,.T.);
#166=EDGE_LOOP('',(#143,#151,#159,#165));
#167=FACE_BOUND('',#166,.T.);
#168=ADVANCED_FACE('',(#167),#133,.F.);
#169=CARTESIAN_POINT('',(0.,0.,20.));
#170=DIRECTION('',(0.,0.,1.));
#171=DIRECTION('',(1.,0.,0.));
#172=AXIS2_PLACEMENT_3D('',#169,#170,#171);
#173=PLANE('',#172);
#174=ORIENTED_EDGE('',*,*,#158,.T.);
#175=CARTESIAN_POINT('',(150.,121.608275892,20.));
#176=DIRECTION('',(-0.707106781,0.707106781,-0.));
#177=VECTOR('',#176,40.151961293);
#178=LINE('',#175,#177);
#179=EDGE_CURVE('',#145,#33,#178,.T.);
#180=ORIENTED_EDGE('',*,*,#179,.T.);
#181=ORIENTED_EDGE('',*,*,#40,.T.);
#182=ORIENTED_EDGE('',*,*,#92,.T.);
#183=ORIENTED_EDGE('',*,*,#123,.T.);
#184=CARTESIAN_POINT('',(118.163505169,31.836494831,20.));
#185=DIRECTION('',(0.,0.,1.));
#186=DIRECTION('',(1.,0.,-0.));
#187=AXIS2_PLACEMENT_3D('',#184,#185,#186);
#188=CIRCLE('',#187,31.836494831);
#189=EDGE_CURVE('',#112,#153,#188,.T.);
#190=ORIENTED_EDGE('',*,*,#189,.T.);
#191=EDGE_LOOP('',(#174,#180,#181,#182,#183,#190));
#192=FACE_BOUND('',#191,.T.);
#193=ADVANCED_FACE('',(#192),#173,.T.);
#194=CARTESIAN_POINT('',(0.,0.,0.));
#195=DIRECTION('',(0.,0.,1.));
#196=DIRECTION('',(1.,0.,0.));
#197=AXIS2_PLACEMENT_3D('',#194,#195,#196);
#198=PLANE('',#197);
#199=ORIENTED_EDGE('',*,*,#56,.F.);
#200=CARTESIAN_POINT('',(121.608275892,150.,0.));
#201=DIRECTION('',(0.707106781,-0.707106781,-0.));
#202=VECTOR('',#201,40.151961293);
#203=LINE('',#200,#202);
#204=EDGE_CURVE('',#43,#137,#203,.T.);
#205=ORIENTED_EDGE('',*,*,#204,.T.);
#206=ORIENTED_EDGE('',*,*,#142,.F.);
#207=CARTESIAN_POINT('',(118.163505169,31.836494831,0.));
#208=DIRECTION('',(-0.,-0.,-1.));
#209=DIRECTION('',(1.,0.,-0.));
#210=AXIS2_PLACEMENT_3D('',#207,#208,#209);
#211=CIRCLE('',#210,31.836494831);
#212=EDGE_CURVE('',#135,#104,#211,.T.);
#213=ORIENTED_EDGE('',*,*,#212,.T.);
#214=ORIENTED_EDGE('',*,*,#109,.F.);
#215=ORIENTED_EDGE('',*,*,#78,.F.);
#216=EDGE_LOOP('',(#199,#205,#206,#213,#214,#215));
#217=FACE_BOUND('',#216,.T.);
#218=ADVANCED_FACE('',(#217),#198,.F.);
#219=CARTESIAN_POINT('',(118.163505169,31.836494831,20.));
#220=DIRECTION('',(0.,-0.,-1.));
#221=DIRECTION('',(0.,1.,-0.));
#222=AXIS2_PLACEMENT_3D('',#219,#220,#221);
#223=CYLINDRICAL_SURFACE('',#222,31.836494831);
#224=ORIENTED_EDGE('',*,*,#189,.F.);
#225=ORIENTED_EDGE('',*,*,#117,.F.);
#226=ORIENTED_EDGE('',*,*,#212,.F.);
#227=ORIENTED_EDGE('',*,*,#164,.F.);
#228=EDGE_LOOP('',(#224,#225,#226,#227));
#229=FACE_BOUND('',#228,.T.);
#230=ADVANCED_FACE('',(#229),#223,.T.);
#231=CARTESIAN_POINT('',(121.608275892,150.,20.));
#232=DIRECTION('',(-0.707106781,-0.707106781,0.));
#233=DIRECTION('',(0.,-0.,-1.));
#234=AXIS2_PLACEMENT_3D('',#231,#232,#233);
#235=PLANE('',#234);
#236=ORIENTED_EDGE('',*,*,#179,.F.);
#237=ORIENTED_EDGE('',*,*,#150,.F.);
#238=ORIENTED_EDGE('',*,*,#204,.F.);
#239=ORIENTED_EDGE('',*,*,#48,.F.);
#240=EDGE_LOOP('',(#236,#237,#238,#239));
#241=FACE_BOUND('',#240,.T.);
#242=ADVANCED_FACE('',(#241),#235,.F.);
#243=CLOSED_SHELL('',(#66,#97,#128,#168,#193,#218,#230,#242));
#244=MANIFOLD_SOLID_BREP('Extruded.001',#243);
#26=STYLED_ITEM('',(),#244);
#16=SHAPE_REPRESENTATION('root',(#15),#10);
#17=ADVANCED_BREP_SHAPE_REPRESENTATION('root',(#244),#10);
#252=SHAPE_REPRESENTATION_RELATIONSHIP('','',#16,#17);
#253=APPLICATION_CONTEXT('configuration controlled 3D design of mechanical parts and assemblies');
#254=APPLICATION_PROTOCOL_DEFINITION('international standard','configuration_control_3d_design_ed2_mim',2004,#253);
#255=PRODUCT_CONTEXT('',#253,'mechanical');
#256=PRODUCT_DEFINITION_CONTEXT('part definition',#253,'design');
#24=PRODUCT('root','root','',(#255));
#257=PRODUCT_RELATED_PRODUCT_CATEGORY('part','',(#24));
#258=PRODUCT_DEFINITION_FORMATION_WITH_SPECIFIED_SOURCE('','',#24,.NOT_KNOWN.);
#25=PRODUCT_DEFINITION('design','',#258,#256);
#23=PRODUCT_DEFINITION_SHAPE('','',#25);
#259=SHAPE_DEFINITION_REPRESENTATION(#23,#16);
#11=DRAUGHTING_MODEL('',(),#10);
#1=MECHANICAL_DESIGN_GEOMETRIC_PRESENTATION_REPRESENTATION('',(#26),#10);
ENDSEC;
END-ISO-10303-21;
