ISO-10303-21;
HEADER;

/* File generated by HOOPS Exchange Version 24.2.0 */

FILE_DESCRIPTION(('HOOPS Exchange Step'),'2;1');

FILE_NAME('C:\\github\\STEPoscope\\examples\\stepAP203\\twoHoledCylinders.step',
'2026-09-18T19:30:27+02:00',
('jorgen.engstrom'),
('Unknown organisation'),
'HOOPS Exchange 2024.2',
'HOOPS Exchange',
'Unknown authorisation');

FILE_SCHEMA( ('AP203_CONFIGURATION_CONTROLLED_3D_DESIGN_OF_MECHANICAL_PARTS_AND_ASSEMBLIES_MIM_LF') );

ENDSEC;

DATA;
#3=(NAMED_UNIT(*)PLANE_ANGLE_UNIT()SI_UNIT($,.RADIAN.));
#4=PLANE_ANGLE_MEASURE_WITH_UNIT(PLANE_ANGLE_MEASURE(0.0174532925),#3);
#5=(CONVERSION_BASED_UNIT('DEGREE',#4)NAMED_UNIT(#6)PLANE_ANGLE_UNIT());
#6=DIMENSIONAL_EXPONENTS(0.,0.,0.,0.,0.,0.,0.);
#7=(NAMED_UNIT(*)SI_UNIT($,.STERADIAN.)SOLID_ANGLE_UNIT());
#8=(LENGTH_UNIT()NAMED_UNIT(*)SI_UNIT(.MILLI.,.METRE.));
#9=UNCERTAINTY_MEASURE_WITH_UNIT(LENGTH_MEASURE(1.000000E-05),#8,'DISTANCE_ACCURACY_VALUE','Maximum Tolerance applied to model');
#10=(GEOMETRIC_REPRESENTATION_CONTEXT(3)GLOBAL_UNCERTAINTY_ASSIGNED_CONTEXT((#9))GLOBAL_UNIT_ASSIGNED_CONTEXT((#8,#5,#7))REPRESENTATION_CONTEXT('','root'));
#12=CARTESIAN_POINT('',(0.,0.,0.));
#13=DIRECTION('',(0.,0.,1.));
#14=DIRECTION('',(1.,0.,0.));
#15=AXIS2_PLACEMENT_3D('',#12,#13,#14);
#27=CARTESIAN_POINT('',(-177.68662511,177.68662511,224.677810962));
#28=DIRECTION('',(0.,-0.,-1.));
#29=DIRECTION('',(0.,1.,-0.));
#30=AXIS2_PLACEMENT_3D('',#27,#28,#29);
#31=CYLINDRICAL_SURFACE('',#30,128.218426909);
#32=CARTESIAN_POINT('',(-177.68662511,305.90505202,0.));
#33=VERTEX_POINT('',#32);
#34=CARTESIAN_POINT('',(-177.68662511,305.90505202,132.681222791));
#35=VERTEX_POINT('',#34);
#36=CARTESIAN_POINT('',(-177.68662511,305.90505202,-0.));
#37=DIRECTION('',(-0.,0.,1.));
#38=VECTOR('',#37,132.681222791);
#39=LINE('',#36,#38);
#40=EDGE_CURVE('',#33,#35,#39,.T.);
#41=ORIENTED_EDGE('',*,*,#40,.T.);
#42=CARTESIAN_POINT('',(-49.468198201,177.68662511,132.681222791));
#43=VERTEX_POINT('',#42);
#44=CARTESIAN_POINT('',(-177.68662511,177.68662511,132.681222791));
#45=DIRECTION('',(0.,0.,1.));
#46=DIRECTION('',(1.,0.,-0.));
#47=AXIS2_PLACEMENT_3D('',#44,#45,#46);
#48=CIRCLE('',#47,128.218426909);
#49=EDGE_CURVE('',#43,#35,#48,.T.);
#50=ORIENTED_EDGE('',*,*,#49,.F.);
#51=CARTESIAN_POINT('',(-49.468198201,177.68662511,0.));
#52=VERTEX_POINT('',#51);
#53=CARTESIAN_POINT('',(-49.468198201,177.68662511,132.681222791));
#54=DIRECTION('',(0.,-0.,-1.));
#55=VECTOR('',#54,132.681222791);
#56=LINE('',#53,#55);
#57=EDGE_CURVE('',#43,#52,#56,.T.);
#58=ORIENTED_EDGE('',*,*,#57,.T.);
#59=CARTESIAN_POINT('',(-177.68662511,177.68662511,0.));
#60=DIRECTION('',(0.,0.,1.));
#61=DIRECTION('',(1.,0.,-0.));
#62=AXIS2_PLACEMENT_3D('',#59,#60,#61);
#63=CIRCLE('',#62,128.218426909);
#64=EDGE_CURVE('',#52,#33,#63,.T.);
#65=ORIENTED_EDGE('',*,*,#64,.T.);
#66=EDGE_LOOP('',(#41,#50,#58,#65));
#67=FACE_BOUND('',#66,.T.);
#68=ADVANCED_FACE('',(#67),#31,.T.);
#69=CARTESIAN_POINT('',(-177.68662511,0.,224.677810962));
#70=DIRECTION('',(-1.,0.,0.));
#71=DIRECTION('',(0.,0.,1.));
#72=AXIS2_PLACEMENT_3D('',#69,#70,#71);
#73=PLANE('',#72);
#74=CARTESIAN_POINT('',(-177.68662511,0.,0.));
#75=VERTEX_POINT('',#74);
#76=CARTESIAN_POINT('',(-177.68662511,49.468198201,0.));
#77=VERTEX_POINT('',#76);
#78=CARTESIAN_POINT('',(-177.68662511,0.,0.));
#79=DIRECTION('',(0.,1.,0.));
#80=VECTOR('',#79,49.468198201);
#81=LINE('',#78,#80);
#82=EDGE_CURVE('',#75,#77,#81,.T.);
#83=ORIENTED_EDGE('',*,*,#82,.F.);
#84=CARTESIAN_POINT('',(-177.68662511,0.,132.681222791));
#85=VERTEX_POINT('',#84);
#86=CARTESIAN_POINT('',(-177.68662511,0.,132.681222791));
#87=DIRECTION('',(0.,-0.,-1.));
#88=VECTOR('',#87,132.681222791);
#89=LINE('',#86,#88);
#90=EDGE_CURVE('',#85,#75,#89,.T.);
#91=ORIENTED_EDGE('',*,*,#90,.F.);
#92=CARTESIAN_POINT('',(-177.68662511,49.468198201,132.681222791));
#93=VERTEX_POINT('',#92);
#94=CARTESIAN_POINT('',(-177.68662511,0.,132.681222791));
#95=DIRECTION('',(0.,1.,0.));
#96=VECTOR('',#95,49.468198201);
#97=LINE('',#94,#96);
#98=EDGE_CURVE('',#85,#93,#97,.T.);
#99=ORIENTED_EDGE('',*,*,#98,.T.);
#100=CARTESIAN_POINT('',(-177.68662511,49.468198201,132.681222791));
#101=DIRECTION('',(0.,-0.,-1.));
#102=VECTOR('',#101,132.681222791);
#103=LINE('',#100,#102);
#104=EDGE_CURVE('',#93,#77,#103,.T.);
#105=ORIENTED_EDGE('',*,*,#104,.T.);
#106=EDGE_LOOP('',(#83,#91,#99,#105));
#107=FACE_BOUND('',#106,.T.);
#108=ADVANCED_FACE('',(#107),#73,.T.);
#109=CARTESIAN_POINT('',(0.,0.,224.677810962));
#110=DIRECTION('',(0.,-1.,0.));
#111=DIRECTION('',(0.,-0.,-1.));
#112=AXIS2_PLACEMENT_3D('',#109,#110,#111);
#113=PLANE('',#112);
#114=CARTESIAN_POINT('',(-85.34430826,0.,0.));
#115=VERTEX_POINT('',#114);
#116=CARTESIAN_POINT('',(-85.34430826,0.,0.));
#117=DIRECTION('',(-1.,0.,0.));
#118=VECTOR('',#117,92.342316851);
#119=LINE('',#116,#118);
#120=EDGE_CURVE('',#115,#75,#119,.T.);
#121=ORIENTED_EDGE('',*,*,#120,.F.);
#122=CARTESIAN_POINT('',(-85.34430826,0.,132.681222791));
#123=VERTEX_POINT('',#122);
#124=CARTESIAN_POINT('',(-85.34430826,0.,132.681222791));
#125=DIRECTION('',(0.,-0.,-1.));
#126=VECTOR('',#125,132.681222791);
#127=LINE('',#124,#126);
#128=EDGE_CURVE('',#123,#115,#127,.T.);
#129=ORIENTED_EDGE('',*,*,#128,.F.);
#130=CARTESIAN_POINT('',(-85.34430826,0.,132.681222791));
#131=DIRECTION('',(-1.,0.,0.));
#132=VECTOR('',#131,92.342316851);
#133=LINE('',#130,#132);
#134=EDGE_CURVE('',#123,#85,#133,.T.);
#135=ORIENTED_EDGE('',*,*,#134,.T.);
#136=ORIENTED_EDGE('',*,*,#90,.T.);
#137=EDGE_LOOP('',(#121,#129,#135,#136));
#138=FACE_BOUND('',#137,.T.);
#139=ADVANCED_FACE('',(#138),#113,.T.);
#140=CARTESIAN_POINT('',(0.,0.,224.677810962));
#141=DIRECTION('',(0.,-0.,-1.));
#142=DIRECTION('',(0.,1.,-0.));
#143=AXIS2_PLACEMENT_3D('',#140,#141,#142);
#144=CYLINDRICAL_SURFACE('',#143,85.34430826);
#145=CARTESIAN_POINT('',(0.,85.34430826,0.));
#146=VERTEX_POINT('',#145);
#147=CARTESIAN_POINT('',(0.,0.,0.));
#148=DIRECTION('',(0.,0.,1.));
#149=DIRECTION('',(0.,-1.,0.));
#150=AXIS2_PLACEMENT_3D('',#147,#148,#149);
#151=CIRCLE('',#150,85.34430826);
#152=EDGE_CURVE('',#115,#146,#151,.T.);
#153=ORIENTED_EDGE('',*,*,#152,.T.);
#154=CARTESIAN_POINT('',(0.,85.34430826,132.681222791));
#155=VERTEX_POINT('',#154);
#156=CARTESIAN_POINT('',(0.,85.34430826,132.681222791));
#157=DIRECTION('',(0.,-0.,-1.));
#158=VECTOR('',#157,132.681222791);
#159=LINE('',#156,#158);
#160=EDGE_CURVE('',#155,#146,#159,.T.);
#161=ORIENTED_EDGE('',*,*,#160,.F.);
#162=CARTESIAN_POINT('',(0.,0.,132.681222791));
#163=DIRECTION('',(0.,0.,1.));
#164=DIRECTION('',(1.,0.,-0.));
#165=AXIS2_PLACEMENT_3D('',#162,#163,#164);
#166=CIRCLE('',#165,85.34430826);
#167=EDGE_CURVE('',#123,#155,#166,.T.);
#168=ORIENTED_EDGE('',*,*,#167,.F.);
#169=ORIENTED_EDGE('',*,*,#128,.T.);
#170=EDGE_LOOP('',(#153,#161,#168,#169));
#171=FACE_BOUND('',#170,.T.);
#172=ADVANCED_FACE('',(#171),#144,.T.);
#173=CARTESIAN_POINT('',(0.,177.68662511,224.677810962));
#174=DIRECTION('',(1.,0.,0.));
#175=DIRECTION('',(0.,0.,-1.));
#176=AXIS2_PLACEMENT_3D('',#173,#174,#175);
#177=PLANE('',#176);
#178=CARTESIAN_POINT('',(0.,177.68662511,0.));
#179=VERTEX_POINT('',#178);
#180=CARTESIAN_POINT('',(0.,177.68662511,0.));
#181=DIRECTION('',(0.,-1.,0.));
#182=VECTOR('',#181,92.342316851);
#183=LINE('',#180,#182);
#184=EDGE_CURVE('',#179,#146,#183,.T.);
#185=ORIENTED_EDGE('',*,*,#184,.F.);
#186=CARTESIAN_POINT('',(0.,177.68662511,132.681222791));
#187=VERTEX_POINT('',#186);
#188=CARTESIAN_POINT('',(0.,177.68662511,132.681222791));
#189=DIRECTION('',(0.,-0.,-1.));
#190=VECTOR('',#189,132.681222791);
#191=LINE('',#188,#190);
#192=EDGE_CURVE('',#187,#179,#191,.T.);
#193=ORIENTED_EDGE('',*,*,#192,.F.);
#194=CARTESIAN_POINT('',(0.,177.68662511,132.681222791));
#195=DIRECTION('',(0.,-1.,0.));
#196=VECTOR('',#195,92.342316851);
#197=LINE('',#194,#196);
#198=EDGE_CURVE('',#187,#155,#197,.T.);
#199=ORIENTED_EDGE('',*,*,#198,.T.);
#200=ORIENTED_EDGE('',*,*,#160,.T.);
#201=EDGE_LOOP('',(#185,#193,#199,#200));
#202=FACE_BOUND('',#201,.T.);
#203=ADVANCED_FACE('',(#202),#177,.T.);
#204=CARTESIAN_POINT('',(-177.68662511,177.68662511,224.677810962));
#205=DIRECTION('',(0.,1.,-0.));
#206=DIRECTION('',(0.,0.,1.));
#207=AXIS2_PLACEMENT_3D('',#204,#205,#206);
#208=PLANE('',#207);
#209=CARTESIAN_POINT('',(-49.468198201,177.68662511,0.));
#210=DIRECTION('',(1.,0.,-0.));
#211=VECTOR('',#210,49.468198201);
#212=LINE('',#209,#211);
#213=EDGE_CURVE('',#52,#179,#212,.T.);
#214=ORIENTED_EDGE('',*,*,#213,.F.);
#215=ORIENTED_EDGE('',*,*,#57,.F.);
#216=CARTESIAN_POINT('',(-49.468198201,177.68662511,132.681222791));
#217=DIRECTION('',(1.,0.,-0.));
#218=VECTOR('',#217,49.468198201);
#219=LINE('',#216,#218);
#220=EDGE_CURVE('',#43,#187,#219,.T.);
#221=ORIENTED_EDGE('',*,*,#220,.T.);
#222=ORIENTED_EDGE('',*,*,#192,.T.);
#223=EDGE_LOOP('',(#214,#215,#221,#222));
#224=FACE_BOUND('',#223,.T.);
#225=ADVANCED_FACE('',(#224),#208,.T.);
#226=CARTESIAN_POINT('',(0.,0.,132.681222791));
#227=DIRECTION('',(0.,0.,1.));
#228=DIRECTION('',(1.,0.,0.));
#229=AXIS2_PLACEMENT_3D('',#226,#227,#228);
#230=PLANE('',#229);
#231=CARTESIAN_POINT('',(39.853569882,0.,132.681222791));
#232=VERTEX_POINT('',#231);
#233=CARTESIAN_POINT('',(0.,0.,132.681222791));
#234=DIRECTION('',(0.,0.,1.));
#235=DIRECTION('',(1.,0.,-0.));
#236=AXIS2_PLACEMENT_3D('',#233,#234,#235);
#237=CIRCLE('',#236,39.853569882);
#238=EDGE_CURVE('',#232,#232,#237,.T.);
#239=ORIENTED_EDGE('',*,*,#238,.F.);
#240=EDGE_LOOP('',(#239));
#241=FACE_BOUND('',#240,.T.);
#242=CARTESIAN_POINT('',(-105.942330841,177.68662511,132.681222791));
#243=VERTEX_POINT('',#242);
#244=CARTESIAN_POINT('',(-177.68662511,177.68662511,132.681222791));
#245=DIRECTION('',(0.,0.,1.));
#246=DIRECTION('',(1.,0.,-0.));
#247=AXIS2_PLACEMENT_3D('',#244,#245,#246);
#248=CIRCLE('',#247,71.74429427);
#249=EDGE_CURVE('',#243,#243,#248,.T.);
#250=ORIENTED_EDGE('',*,*,#249,.F.);
#251=EDGE_LOOP('',(#250));
#252=FACE_BOUND('',#251,.T.);
#253=ORIENTED_EDGE('',*,*,#49,.T.);
#254=CARTESIAN_POINT('',(-177.68662511,177.68662511,132.681222791));
#255=DIRECTION('',(0.,0.,1.));
#256=DIRECTION('',(1.,0.,-0.));
#257=AXIS2_PLACEMENT_3D('',#254,#255,#256);
#258=CIRCLE('',#257,128.218426909);
#259=EDGE_CURVE('',#35,#93,#258,.T.);
#260=ORIENTED_EDGE('',*,*,#259,.T.);
#261=ORIENTED_EDGE('',*,*,#98,.F.);
#262=ORIENTED_EDGE('',*,*,#134,.F.);
#263=ORIENTED_EDGE('',*,*,#167,.T.);
#264=ORIENTED_EDGE('',*,*,#198,.F.);
#265=ORIENTED_EDGE('',*,*,#220,.F.);
#266=EDGE_LOOP('',(#253,#260,#261,#262,#263,#264,#265));
#267=FACE_BOUND('',#266,.T.);
#268=ADVANCED_FACE('',(#241,#252,#267),#230,.T.);
#269=CARTESIAN_POINT('',(0.,0.,0.));
#270=DIRECTION('',(0.,0.,1.));
#271=DIRECTION('',(1.,0.,0.));
#272=AXIS2_PLACEMENT_3D('',#269,#270,#271);
#273=PLANE('',#272);
#274=CARTESIAN_POINT('',(39.853569882,0.,0.));
#275=VERTEX_POINT('',#274);
#276=CARTESIAN_POINT('',(0.,0.,0.));
#277=DIRECTION('',(0.,0.,1.));
#278=DIRECTION('',(1.,0.,-0.));
#279=AXIS2_PLACEMENT_3D('',#276,#277,#278);
#280=CIRCLE('',#279,39.853569882);
#281=EDGE_CURVE('',#275,#275,#280,.T.);
#282=ORIENTED_EDGE('',*,*,#281,.T.);
#283=EDGE_LOOP('',(#282));
#284=FACE_BOUND('',#283,.T.);
#285=CARTESIAN_POINT('',(-105.942330841,177.68662511,0.));
#286=VERTEX_POINT('',#285);
#287=CARTESIAN_POINT('',(-177.68662511,177.68662511,0.));
#288=DIRECTION('',(0.,0.,1.));
#289=DIRECTION('',(1.,0.,-0.));
#290=AXIS2_PLACEMENT_3D('',#287,#288,#289);
#291=CIRCLE('',#290,71.74429427);
#292=EDGE_CURVE('',#286,#286,#291,.T.);
#293=ORIENTED_EDGE('',*,*,#292,.T.);
#294=EDGE_LOOP('',(#293));
#295=FACE_BOUND('',#294,.T.);
#296=CARTESIAN_POINT('',(-177.68662511,177.68662511,0.));
#297=DIRECTION('',(0.,0.,1.));
#298=DIRECTION('',(1.,0.,-0.));
#299=AXIS2_PLACEMENT_3D('',#296,#297,#298);
#300=CIRCLE('',#299,128.218426909);
#301=EDGE_CURVE('',#33,#77,#300,.T.);
#302=ORIENTED_EDGE('',*,*,#301,.F.);
#303=ORIENTED_EDGE('',*,*,#64,.F.);
#304=ORIENTED_EDGE('',*,*,#213,.T.);
#305=ORIENTED_EDGE('',*,*,#184,.T.);
#306=ORIENTED_EDGE('',*,*,#152,.F.);
#307=ORIENTED_EDGE('',*,*,#120,.T.);
#308=ORIENTED_EDGE('',*,*,#82,.T.);
#309=EDGE_LOOP('',(#302,#303,#304,#305,#306,#307,#308));
#310=FACE_BOUND('',#309,.T.);
#311=ADVANCED_FACE('',(#284,#295,#310),#273,.F.);
#312=CARTESIAN_POINT('',(-177.68662511,177.68662511,-657.290407206));
#313=DIRECTION('',(0.,0.,1.));
#314=DIRECTION('',(1.,0.,-0.));
#315=AXIS2_PLACEMENT_3D('',#312,#313,#314);
#316=CYLINDRICAL_SURFACE('',#315,71.74429427);
#317=CARTESIAN_POINT('',(-105.942330841,177.68662511,132.681222791));
#318=DIRECTION('',(-0.,-0.,-1.));
#319=VECTOR('',#318,132.681222791);
#320=LINE('',#317,#319);
#321=EDGE_CURVE('',#243,#286,#320,.T.);
#322=ORIENTED_EDGE('',*,*,#321,.F.);
#323=ORIENTED_EDGE('',*,*,#249,.T.);
#324=ORIENTED_EDGE('',*,*,#321,.T.);
#325=ORIENTED_EDGE('',*,*,#292,.F.);
#326=EDGE_LOOP('',(#322,#323,#324,#325));
#327=FACE_BOUND('',#326,.T.);
#328=ADVANCED_FACE('',(#327),#316,.F.);
#329=CARTESIAN_POINT('',(0.,0.,-529.455754396));
#330=DIRECTION('',(0.,0.,1.));
#331=DIRECTION('',(1.,0.,-0.));
#332=AXIS2_PLACEMENT_3D('',#329,#330,#331);
#333=CYLINDRICAL_SURFACE('',#332,39.853569882);
#334=CARTESIAN_POINT('',(39.853569882,0.,132.681222791));
#335=DIRECTION('',(-0.,-0.,-1.));
#336=VECTOR('',#335,132.681222791);
#337=LINE('',#334,#336);
#338=EDGE_CURVE('',#232,#275,#337,.T.);
#339=ORIENTED_EDGE('',*,*,#338,.F.);
#340=ORIENTED_EDGE('',*,*,#238,.T.);
#341=ORIENTED_EDGE('',*,*,#338,.T.);
#342=ORIENTED_EDGE('',*,*,#281,.F.);
#343=EDGE_LOOP('',(#339,#340,#341,#342));
#344=FACE_BOUND('',#343,.T.);
#345=ADVANCED_FACE('',(#344),#333,.F.);
#346=CARTESIAN_POINT('',(-177.68662511,177.68662511,224.677810962));
#347=DIRECTION('',(0.,-0.,-1.));
#348=DIRECTION('',(0.,1.,-0.));
#349=AXIS2_PLACEMENT_3D('',#346,#347,#348);
#350=CYLINDRICAL_SURFACE('',#349,128.218426909);
#351=ORIENTED_EDGE('',*,*,#40,.F.);
#352=ORIENTED_EDGE('',*,*,#301,.T.);
#353=ORIENTED_EDGE('',*,*,#104,.F.);
#354=ORIENTED_EDGE('',*,*,#259,.F.);
#355=EDGE_LOOP('',(#351,#352,#353,#354));
#356=FACE_BOUND('',#355,.T.);
#357=ADVANCED_FACE('',(#356),#350,.T.);
#358=CLOSED_SHELL('',(#68,#108,#139,#172,#203,#225,#268,#311,#328,#345,#357));
#359=MANIFOLD_SOLID_BREP('Extruded.001',#358);
#26=STYLED_ITEM('',(),#359);
#16=SHAPE_REPRESENTATION('root',(#15),#10);
#17=ADVANCED_BREP_SHAPE_REPRESENTATION('root',(#359),#10);
#367=SHAPE_REPRESENTATION_RELATIONSHIP('','',#16,#17);
#368=APPLICATION_CONTEXT('configuration controlled 3D design of mechanical parts and assemblies');
#369=APPLICATION_PROTOCOL_DEFINITION('international standard','configuration_control_3d_design_ed2_mim',2004,#368);
#370=PRODUCT_CONTEXT('',#368,'mechanical');
#371=PRODUCT_DEFINITION_CONTEXT('part definition',#368,'design');
#24=PRODUCT('root','root','',(#370));
#372=PRODUCT_RELATED_PRODUCT_CATEGORY('part','',(#24));
#373=PRODUCT_DEFINITION_FORMATION_WITH_SPECIFIED_SOURCE('','',#24,.NOT_KNOWN.);
#25=PRODUCT_DEFINITION('design','',#373,#371);
#23=PRODUCT_DEFINITION_SHAPE('','',#25);
#374=SHAPE_DEFINITION_REPRESENTATION(#23,#16);
#11=DRAUGHTING_MODEL('',(),#10);
#1=MECHANICAL_DESIGN_GEOMETRIC_PRESENTATION_REPRESENTATION('',(#26),#10);
ENDSEC;
END-ISO-10303-21;
