ISO-10303-21;
HEADER;
FILE_DESCRIPTION (( 'STEP AP203' ),
    '1' );
FILE_NAME ('spindle1.step',
    '2026-09-08T00:00:00',
    ( '' ),
    ( '' ),
    'SteppifySOLID task20',
    'hand-written AP203 emitter',
    '' );
FILE_SCHEMA (( 'CONFIG_CONTROL_DESIGN' ));
ENDSEC;

DATA;
#1 = CARTESIAN_POINT( 'NONE', (0, 22.17950195001235, 0) ) ;
#2 = DIRECTION( 'NONE', (0, -1, 0) ) ;
#3 = DIRECTION( 'NONE', (0, 0, -1) ) ;
#4 = AXIS2_PLACEMENT_3D( 'NONE', #1, #2, #3 ) ;
#5 = CONICAL_SURFACE( 'NONE', #4, 0, 0.9040826078345882 ) ;
#6 = CARTESIAN_POINT( 'NONE', (0, 6.245800292553793, -20.248208678371693) ) ;
#7 = VERTEX_POINT( 'NONE', #6 ) ;
#8 = CARTESIAN_POINT( 'NONE', (20.248208678371693, 6.245800292553793, -1.2398451973217777e-15) ) ;
#9 = VERTEX_POINT( 'NONE', #8 ) ;
#10 = CARTESIAN_POINT( 'NONE', (2.4796903946435554e-15, 6.245800292553793, 20.248208678371693) ) ;
#11 = VERTEX_POINT( 'NONE', #10 ) ;
#12 = CARTESIAN_POINT( 'NONE', (-20.248208678371693, 6.245800292553793, 3.719535591965333e-15) ) ;
#13 = VERTEX_POINT( 'NONE', #12 ) ;
#14 = CARTESIAN_POINT( 'NONE', (0, 6.245800292553793, 0) ) ;
#15 = AXIS2_PLACEMENT_3D( 'NONE', #14, #2, #3 ) ;
#16 = CIRCLE( 'NONE', #15, 20.248208678371693 ) ;
#17 = EDGE_CURVE( 'NONE', #7, #9, #16, .T. ) ;
#18 = EDGE_CURVE( 'NONE', #9, #11, #16, .T. ) ;
#19 = EDGE_CURVE( 'NONE', #11, #13, #16, .T. ) ;
#20 = EDGE_CURVE( 'NONE', #13, #7, #16, .T. ) ;
#21 = DIRECTION( 'NONE', (0, -0.6184067801833767, -0.7858581641894603) ) ;
#22 = VECTOR( 'NONE', #21, 1 ) ;
#23 = LINE( 'NONE', #1, #22 ) ;
#24 = VERTEX_POINT( 'NONE', #1 ) ;
#25 = EDGE_CURVE( 'NONE', #24, #7, #23, .T. ) ;
#26 = ORIENTED_EDGE( 'NONE', *, *, #25, .T. ) ;
#27 = ORIENTED_EDGE( 'NONE', *, *, #20, .F. ) ;
#28 = ORIENTED_EDGE( 'NONE', *, *, #19, .F. ) ;
#29 = DIRECTION( 'NONE', (0, 0.6184067801833767, -0.7858581641894603) ) ;
#30 = VECTOR( 'NONE', #29, 1 ) ;
#31 = LINE( 'NONE', #10, #30 ) ;
#32 = EDGE_CURVE( 'NONE', #11, #24, #31, .T. ) ;
#33 = ORIENTED_EDGE( 'NONE', *, *, #32, .T. ) ;
#34 = EDGE_LOOP( 'NONE', (#26, #27, #28, #33) ) ;
#35 = FACE_OUTER_BOUND( 'NONE', #34, .T. ) ;
#36 = ADVANCED_FACE( 'NONE', (#35), #5, .T. ) ;
#37 = ORIENTED_EDGE( 'NONE', *, *, #32, .F. ) ;
#38 = ORIENTED_EDGE( 'NONE', *, *, #18, .F. ) ;
#39 = ORIENTED_EDGE( 'NONE', *, *, #17, .F. ) ;
#40 = ORIENTED_EDGE( 'NONE', *, *, #25, .F. ) ;
#41 = EDGE_LOOP( 'NONE', (#37, #38, #39, #40) ) ;
#42 = FACE_OUTER_BOUND( 'NONE', #41, .T. ) ;
#43 = ADVANCED_FACE( 'NONE', (#42), #5, .T. ) ;
#44 = CARTESIAN_POINT( 'NONE', (0, -24.925470425678256, 0) ) ;
#45 = AXIS2_PLACEMENT_3D( 'NONE', #44, #2, #3 ) ;
#46 = CYLINDRICAL_SURFACE( 'NONE', #45, 20.248208678371693 ) ;
#47 = CARTESIAN_POINT( 'NONE', (0, -7.7541997074462055, -20.248208678371693) ) ;
#48 = VERTEX_POINT( 'NONE', #47 ) ;
#49 = CARTESIAN_POINT( 'NONE', (20.248208678371693, -7.7541997074462055, -1.2398451973217777e-15) ) ;
#50 = VERTEX_POINT( 'NONE', #49 ) ;
#51 = CARTESIAN_POINT( 'NONE', (2.4796903946435554e-15, -7.7541997074462055, 20.248208678371693) ) ;
#52 = VERTEX_POINT( 'NONE', #51 ) ;
#53 = CARTESIAN_POINT( 'NONE', (-20.248208678371693, -7.7541997074462055, 3.719535591965333e-15) ) ;
#54 = VERTEX_POINT( 'NONE', #53 ) ;
#55 = CARTESIAN_POINT( 'NONE', (0, -7.7541997074462055, 0) ) ;
#56 = AXIS2_PLACEMENT_3D( 'NONE', #55, #2, #3 ) ;
#57 = CIRCLE( 'NONE', #56, 20.248208678371693 ) ;
#58 = EDGE_CURVE( 'NONE', #48, #50, #57, .T. ) ;
#59 = EDGE_CURVE( 'NONE', #50, #52, #57, .T. ) ;
#60 = EDGE_CURVE( 'NONE', #52, #54, #57, .T. ) ;
#61 = EDGE_CURVE( 'NONE', #54, #48, #57, .T. ) ;
#62 = ORIENTED_EDGE( 'NONE', *, *, #61, .F. ) ;
#63 = ORIENTED_EDGE( 'NONE', *, *, #60, .F. ) ;
#64 = ORIENTED_EDGE( 'NONE', *, *, #59, .F. ) ;
#65 = ORIENTED_EDGE( 'NONE', *, *, #58, .F. ) ;
#66 = EDGE_LOOP( 'NONE', (#62, #63, #64, #65) ) ;
#67 = FACE_OUTER_BOUND( 'NONE', #66, .T. ) ;
#68 = ORIENTED_EDGE( 'NONE', *, *, #17, .T. ) ;
#69 = ORIENTED_EDGE( 'NONE', *, *, #18, .T. ) ;
#70 = ORIENTED_EDGE( 'NONE', *, *, #19, .T. ) ;
#71 = ORIENTED_EDGE( 'NONE', *, *, #20, .T. ) ;
#72 = EDGE_LOOP( 'NONE', (#68, #69, #70, #71) ) ;
#73 = FACE_BOUND( 'NONE', #72, .T. ) ;
#74 = ADVANCED_FACE( 'NONE', (#67, #73), #46, .T. ) ;
#75 = CARTESIAN_POINT( 'NONE', (0, -12.627127884241789, 0) ) ;
#76 = DIRECTION( 'NONE', (0, 1, 0) ) ;
#77 = DIRECTION( 'NONE', (0, 0, 1) ) ;
#78 = AXIS2_PLACEMENT_3D( 'NONE', #75, #76, #77 ) ;
#79 = CONICAL_SURFACE( 'NONE', #78, 0, 1.3346276523478746 ) ;
#80 = DIRECTION( 'NONE', (0, 0.233979378905325, -0.9722415596172992) ) ;
#81 = VECTOR( 'NONE', #80, 1 ) ;
#82 = LINE( 'NONE', #75, #81 ) ;
#83 = VERTEX_POINT( 'NONE', #75 ) ;
#84 = EDGE_CURVE( 'NONE', #83, #48, #82, .T. ) ;
#85 = ORIENTED_EDGE( 'NONE', *, *, #84, .T. ) ;
#86 = ORIENTED_EDGE( 'NONE', *, *, #58, .T. ) ;
#87 = ORIENTED_EDGE( 'NONE', *, *, #59, .T. ) ;
#88 = DIRECTION( 'NONE', (0, -0.233979378905325, -0.9722415596172992) ) ;
#89 = VECTOR( 'NONE', #88, 1 ) ;
#90 = LINE( 'NONE', #51, #89 ) ;
#91 = EDGE_CURVE( 'NONE', #52, #83, #90, .T. ) ;
#92 = ORIENTED_EDGE( 'NONE', *, *, #91, .T. ) ;
#93 = EDGE_LOOP( 'NONE', (#85, #86, #87, #92) ) ;
#94 = FACE_OUTER_BOUND( 'NONE', #93, .T. ) ;
#95 = ADVANCED_FACE( 'NONE', (#94), #79, .T. ) ;
#96 = ORIENTED_EDGE( 'NONE', *, *, #91, .F. ) ;
#97 = ORIENTED_EDGE( 'NONE', *, *, #60, .T. ) ;
#98 = ORIENTED_EDGE( 'NONE', *, *, #61, .T. ) ;
#99 = ORIENTED_EDGE( 'NONE', *, *, #84, .F. ) ;
#100 = EDGE_LOOP( 'NONE', (#96, #97, #98, #99) ) ;
#101 = FACE_OUTER_BOUND( 'NONE', #100, .T. ) ;
#102 = ADVANCED_FACE( 'NONE', (#101), #79, .T. ) ;
#103 = CLOSED_SHELL( 'NONE', (#36, #43, #74, #95, #102) ) ;
#104 = MANIFOLD_SOLID_BREP( 'spindle1', #103 ) ;
#105 = APPLICATION_CONTEXT( 'configuration controlled 3d designs of mechanical parts and assemblies' ) ;
#106 = APPLICATION_PROTOCOL_DEFINITION( 'international standard', 'config_control_design', 1994, #105 ) ;
#107 = MECHANICAL_CONTEXT( 'NONE', #105, 'mechanical' ) ;
#108 = DESIGN_CONTEXT( 'detailed design', #105, 'design' ) ;
#109 = PRODUCT( 'spindle1', 'spindle1', '', (#107) ) ;
#110 = PRODUCT_RELATED_PRODUCT_CATEGORY( 'detail', '', (#109) ) ;
#111 = PRODUCT_DEFINITION_FORMATION_WITH_SPECIFIED_SOURCE( 'ANY', '', #109, .NOT_KNOWN. ) ;
#112 = PRODUCT_DEFINITION( 'UNKNOWN', '', #111, #108 ) ;
#113 = PRODUCT_DEFINITION_SHAPE( 'NONE', 'NONE', #112 ) ;
#114 =( LENGTH_UNIT( ) NAMED_UNIT( * ) SI_UNIT( .MILLI., .METRE. ) );
#115 =( NAMED_UNIT( * ) PLANE_ANGLE_UNIT( ) SI_UNIT( $, .RADIAN. ) );
#116 =( NAMED_UNIT( * ) SI_UNIT( $, .STERADIAN. ) SOLID_ANGLE_UNIT( ) );
#117 = UNCERTAINTY_MEASURE_WITH_UNIT( LENGTH_MEASURE( 1.E-5 ), #114, 'distance_accuracy_value', 'NONE' ) ;
#118 =( GEOMETRIC_REPRESENTATION_CONTEXT( 3 ) GLOBAL_UNCERTAINTY_ASSIGNED_CONTEXT( ( #117 ) ) GLOBAL_UNIT_ASSIGNED_CONTEXT( ( #114, #115, #116 ) ) );
#119 = ADVANCED_BREP_SHAPE_REPRESENTATION( 'spindle1', ( #104 ), #118 ) ;
#120 = SHAPE_DEFINITION_REPRESENTATION( #113, #119 ) ;
ENDSEC;
END-ISO-10303-21;
