ISO-10303-21;
HEADER;
FILE_DESCRIPTION (( 'STEP AP203' ),
    '1' );
FILE_NAME ('circlesloft1.STEP',
    '2026-09-20T21:45:09',
    ( '' ),
    ( '' ),
    'SwSTEP 2.0',
    'SolidWorks 2022',
    '' );
FILE_SCHEMA (( 'CONFIG_CONTROL_DESIGN' ));
ENDSEC;

DATA;
#1 = CARTESIAN_POINT ( 'NONE',  ( 160.0000000000000000, 13.68443564844238125, 25.72779357474152562 ) ) ;
#2 = DATE_AND_TIME ( #203, #32 ) ;
#3 =( NAMED_UNIT ( * ) SI_UNIT ( $, .STERADIAN. ) SOLID_ANGLE_UNIT ( ) );
#4 = APPLICATION_CONTEXT ( 'configuration controlled 3d designs of mechanical parts and assemblies' ) ;
#5 = CARTESIAN_POINT ( 'NONE',  ( 160.0000000000000000, 13.33314829023155390, 23.02293611868198653 ) ) ;
#6 = CARTESIAN_POINT ( 'NONE',  ( 0.000000000000000000, 0.8587462594679151628, 45.68382527376081015 ) ) ;
#7 = EDGE_LOOP ( 'NONE', ( #211, #241 ) ) ;
#8 = CARTESIAN_POINT ( 'NONE',  ( 19.86752184544389976, -0.2050954693554843944, 9.496675900452148156 ) ) ;
#9 = CARTESIAN_POINT ( 'NONE',  ( 19.85232278198597200, -0.07042601750757454537, 8.249268836623212309 ) ) ;
#10 = CARTESIAN_POINT ( 'NONE',  ( 160.0000000000000000, 13.43519771016543984, 23.70026479541653686 ) ) ;
#11 = CARTESIAN_POINT ( 'NONE',  ( 0.000000000000000000, 8.024660519306612727, -11.17293129340319702 ) ) ;
#12 = CARTESIAN_POINT ( 'NONE',  ( 0.000000000000000000, -54.24288407709236282, 20.14413347262967235 ) ) ;
#13 = CARTESIAN_POINT ( 'NONE',  ( 126.5189894486525901, -0.5743279952642852404, 6.781335359984834277 ) ) ;
#14 = CARTESIAN_POINT ( 'NONE',  ( 160.0000000000000000, 6.938172630580824674, 7.225776622680550432 ) ) ;
#15 = CARTESIAN_POINT ( 'NONE',  ( 19.83744065152245994, 0.007882548951646955321, 7.012488210031600389 ) ) ;
#16 = CARTESIAN_POINT ( 'NONE',  ( 0.000000000000000000, 15.26360663591148992, 20.92761322230436249 ) ) ;
#17 = CARTESIAN_POINT ( 'NONE',  ( 71.15842789261098744, -46.20650554937972032, 3.941259084600620799 ) ) ;
#18 = CARTESIAN_POINT ( 'NONE',  ( 0.000000000000000000, 15.66582839068450106, 18.33447034822869881 ) ) ;
#19 = EDGE_CURVE ( 'NONE', #122, #147, #137, .T. ) ;
#20 = PRODUCT ( 'circlesloft1', 'circlesloft1', '', ( #340 ) ) ;
#21 = CARTESIAN_POINT ( 'NONE',  ( 126.3455862527699196, -18.14895737390006047, -6.566007450446509353 ) ) ;
#22 = CARTESIAN_POINT ( 'NONE',  ( 70.94207445099522147, -12.29770507000420920, 8.270594266310771658 ) ) ;
#23 = CARTESIAN_POINT ( 'NONE',  ( 0.000000000000000000, 0.000000000000000000, 0.000000000000000000 ) ) ;
#24 = CARTESIAN_POINT ( 'NONE',  ( 160.0000000000000000, 12.53830449274285819, 19.75732634479829031 ) ) ;
#25 = CARTESIAN_POINT ( 'NONE',  ( 160.0000000000000000, 13.43519771016543984, 23.70026479541653686 ) ) ;
#26 = APPLICATION_CONTEXT ( 'configuration controlled 3d designs of mechanical parts and assemblies' ) ;
#27 = CARTESIAN_POINT ( 'NONE',  ( 126.5733573936719267, 0.6723643904646102731, 10.36467899639976054 ) ) ;
#28 = CARTESIAN_POINT ( 'NONE',  ( 19.93081110823434443, -1.344654919279100191, 14.23215198596126818 ) ) ;
#29 = CARTESIAN_POINT ( 'NONE',  ( 19.90669072700531927, -0.7979457309665439757, 12.50851655234366611 ) ) ;
#30 = APPROVAL ( #59, 'UNSPECIFIED' ) ;
#31 = CARTESIAN_POINT ( 'NONE',  ( 160.0000000000000000, 12.08064461279719914, 41.35770745693407235 ) ) ;
#32 = LOCAL_TIME ( 14, 45, 9.000000000000000000, #319 ) ;
#33 = EDGE_LOOP ( 'NONE', ( #352, #214, #276, #101 ) ) ;
#34 = ADVANCED_FACE ( 'NONE', ( #269 ), #295, .T. ) ;
#35 = CARTESIAN_POINT ( 'NONE',  ( 20.16938069090146257, -45.23529610300615644, 4.146682111798734915 ) ) ;
#36 = CARTESIAN_POINT ( 'NONE',  ( 0.000000000000000000, 12.75790433737568463, 28.58779155970671937 ) ) ;
#37 = EDGE_LOOP ( 'NONE', ( #69, #297, #120, #244 ) ) ;
#38 = CARTESIAN_POINT ( 'NONE',  ( 160.0000000000000000, 12.53830449274285819, 19.75732634479829031 ) ) ;
#39 = CARTESIAN_POINT ( 'NONE',  ( 19.85992231371493943, -0.1377607434315294421, 8.872972368537679344 ) ) ;
#40 = CARTESIAN_POINT ( 'NONE',  ( 0.000000000000000000, -45.56646732459078208, 39.10556248544028080 ) ) ;
#41 = CARTESIAN_POINT ( 'NONE',  ( 0.000000000000000000, 10.14373169489140381, 33.17342755282377453 ) ) ;
#42 = CARTESIAN_POINT ( 'NONE',  ( 160.0000000000000000, -33.61316022576198037, 44.64286258015337694 ) ) ;
#43 = FACE_OUTER_BOUND ( 'NONE', #7, .T. ) ;
#44 = CARTESIAN_POINT ( 'NONE',  ( 71.42349948593565045, -17.68180453041413358, -12.50523061484459575 ) ) ;
#45 = CARTESIAN_POINT ( 'NONE',  ( 126.4834167542941969, -1.837772642827031122, 4.398900527616270040 ) ) ;
#46 = CARTESIAN_POINT ( 'NONE',  ( 0.000000000000000000, 16.81820011172268536, 2.797641679269117443 ) ) ;
#47 = CC_DESIGN_APPROVAL ( #30, ( #90 ) ) ;
#48 = CARTESIAN_POINT ( 'NONE',  ( 126.4643096423375965, -2.734804230142436232, 3.088437161295340072 ) ) ;
#49 = CARTESIAN_POINT ( 'NONE',  ( 126.5041073181892557, -1.038599407477104997, 5.796196376761399094 ) ) ;
#50 = CARTESIAN_POINT ( 'NONE',  ( 126.7440006227210887, 2.074739367243495725, 21.28539255416534814 ) ) ;
#51 = CARTESIAN_POINT ( 'NONE',  ( 126.3596209713931984, -8.668622630999378131, -4.251336760346603683 ) ) ;
#52 = CARTESIAN_POINT ( 'NONE',  ( 0.000000000000000000, 14.64622563837581737, 23.51350175318933466 ) ) ;
#53 = CARTESIAN_POINT ( 'NONE',  ( 160.0000000000000000, 12.53830449274285819, 19.75732634479829031 ) ) ;
#54 = PERSON_AND_ORGANIZATION ( #182, #367 ) ;
#55 = ADVANCED_FACE ( 'NONE', ( #124 ), #70, .F. ) ;
#56 = PERSON_AND_ORGANIZATION_ROLE ( 'creator' ) ;
#57 = PERSON_AND_ORGANIZATION ( #182, #367 ) ;
#58 = PERSON_AND_ORGANIZATION_ROLE ( 'design_owner' ) ;
#59 = APPROVAL_STATUS ( 'not_yet_approved' ) ;
#60 = CARTESIAN_POINT ( 'NONE',  ( 71.34573882236271913, -14.61507716321559158, -9.406843773705668710 ) ) ;
#61 = CARTESIAN_POINT ( 'NONE',  ( 160.0000000000000000, -33.61316022576234275, 44.64286258015311404 ) ) ;
#62 = CC_DESIGN_APPROVAL ( #164, ( #236 ) ) ;
#63 = CARTESIAN_POINT ( 'NONE',  ( 0.000000000000000000, 13.77115960228903013, 26.07635918709879519 ) ) ;
#64 = CARTESIAN_POINT ( 'NONE',  ( 0.000000000000000000, 13.45445335406513720, 26.92741101083859334 ) ) ;
#65 = CC_DESIGN_APPROVAL ( #248, ( #323 ) ) ;
#66 = CARTESIAN_POINT ( 'NONE',  ( 160.0000000000000284, 11.85600221269596055, 17.89919375068271989 ) ) ;
#67 = CARTESIAN_POINT ( 'NONE',  ( 0.000000000000000000, 14.08786585051292484, 25.22530736335899704 ) ) ;
#68 = CARTESIAN_POINT ( 'NONE',  ( 160.0000000000000000, 13.43519771016543984, 23.70026479541653686 ) ) ;
#69 = ORIENTED_EDGE ( 'NONE', *, *, #19, .F. ) ;
#70 = PLANE ( 'NONE',  #174 ) ;
#71 = CC_DESIGN_DATE_AND_TIME_ASSIGNMENT ( #344, #315, ( #236 ) ) ;
#72 = CARTESIAN_POINT ( 'NONE',  ( 160.0000000000000000, -35.65414862443974897, 31.09628904546230643 ) ) ;
#73 = CARTESIAN_POINT ( 'NONE',  ( 71.30215199516415225, -13.40641976525365031, -7.581717550348033186 ) ) ;
#74 = CARTESIAN_POINT ( 'NONE',  ( 19.85992231371493943, -0.1377607434315294421, 8.872972368537679344 ) ) ;
#75 = CARTESIAN_POINT ( 'NONE',  ( 0.000000000000000000, 11.53459702405628207, 30.94819364567847231 ) ) ;
#76 = CARTESIAN_POINT ( 'NONE',  ( 0.000000000000000000, 8.024660519306612727, -11.17293129340319702 ) ) ;
#77 = CARTESIAN_POINT ( 'NONE',  ( 70.79491348193855060, -23.93376715000810506, 18.78411730125788637 ) ) ;
#78 = CARTESIAN_POINT ( 'NONE',  ( 19.82838097558844126, -33.01955534000965287, -17.93340938828447406 ) ) ;
#79 = APPROVAL_PERSON_ORGANIZATION ( #227, #164, #263 ) ;
#80 = CARTESIAN_POINT ( 'NONE',  ( 19.67891958610305636, -10.12720596672351903, -14.61800140409594917 ) ) ;
#81 = CARTESIAN_POINT ( 'NONE',  ( 160.0000000000000000, 3.425795495638571442, 50.31015936879982320 ) ) ;
#82 = DATE_AND_TIME ( #198, #200 ) ;
#83 = CARTESIAN_POINT ( 'NONE',  ( 19.81675008762768542, -0.02081745467088740031, 5.178997558840889859 ) ) ;
#84 = CARTESIAN_POINT ( 'NONE',  ( 71.36265222213604886, -15.17524885104138122, -10.10070510744624883 ) ) ;
#85 = APPROVAL_ROLE ( '' ) ;
#86 = CARTESIAN_POINT ( 'NONE',  ( 160.0000000000000000, -20.95803686680551436, 53.98393848641981663 ) ) ;
#87 = CARTESIAN_POINT ( 'NONE',  ( 20.07733395605386661, -5.410159663925496965, 24.16506992445280133 ) ) ;
#88 = ADVANCED_FACE ( 'NONE', ( #43 ), #184, .F. ) ;
#89 = CARTESIAN_POINT ( 'NONE',  ( 126.5341885121105889, -0.1491426810969086747, 7.796483521514188553 ) ) ;
#90 = SECURITY_CLASSIFICATION ( '', '', #116 ) ;
#91 = PERSON_AND_ORGANIZATION ( #182, #367 ) ;
#92 = CARTESIAN_POINT ( 'NONE',  ( 160.0000000000000000, 13.73986988639018847, 27.73242996240275104 ) ) ;
#93 = CARTESIAN_POINT ( 'NONE',  ( 19.86752184544389976, -0.2050954693554843944, 9.496675900452148156 ) ) ;
#94 = CARTESIAN_POINT ( 'NONE',  ( 160.0000000000000000, 13.07597877556238686, 21.68930625335500650 ) ) ;
#95 = DIRECTION ( 'NONE',  ( 1.000000000000000000, -0.000000000000000000, 0.000000000000000000 ) ) ;
#96 = CARTESIAN_POINT ( 'NONE',  ( 0.000000000000000000, 13.77115960228903013, 26.07635918709879519 ) ) ;
#97 = CARTESIAN_POINT ( 'NONE',  ( 160.0000000000000000, 13.68443564844238125, 25.72779357474152562 ) ) ;
#98 = DESIGN_CONTEXT ( 'detailed design', #26, 'design' ) ;
#99 = CC_DESIGN_PERSON_AND_ORGANIZATION_ASSIGNMENT ( #195, #56, ( #236 ) ) ;
#100 = CARTESIAN_POINT ( 'NONE',  ( 126.5265889803816037, -0.3617353381805969992, 7.288909440749510971 ) ) ;
#101 = ORIENTED_EDGE ( 'NONE', *, *, #294, .F. ) ;
#102 = CARTESIAN_POINT ( 'NONE',  ( 0.000000000000000000, 12.75790433737568463, 28.58779155970671937 ) ) ;
#103 = CARTESIAN_POINT ( 'NONE',  ( 126.4834167542941969, -1.837772642827031122, 4.398900527616270040 ) ) ;
#104 = CARTESIAN_POINT ( 'NONE',  ( 0.000000000000000000, 14.08786585051292484, 25.22530736335899704 ) ) ;
#105 = CARTESIAN_POINT ( 'NONE',  ( 126.5041073181892557, -1.038599407477104997, 5.796196376761399094 ) ) ;
#106 = CARTESIAN_POINT ( 'NONE',  ( 160.0000000000000000, -20.95803686680532252, 53.98393848641978821 ) ) ;
#107 = CARTESIAN_POINT ( 'NONE',  ( 71.11226153516990678, -9.887099041909802821, 0.6445045363522705628 ) ) ;
#108 = CARTESIAN_POINT ( 'NONE',  ( 70.86123739440397173, -34.09158075347409067, 16.84158990708081660 ) ) ;
#109 = DIRECTION ( 'NONE',  ( 1.000000000000000000, 0.000000000000000000, 0.000000000000000000 ) ) ;
#110 = CARTESIAN_POINT ( 'NONE',  ( 0.000000000000000000, 0.8587462594679151628, 45.68382527376081015 ) ) ;
#111 = CARTESIAN_POINT ( 'NONE',  ( 0.000000000000000000, -14.92860166995849980, 50.50698742150030540 ) ) ;
#112 = CC_DESIGN_PERSON_AND_ORGANIZATION_ASSIGNMENT ( #267, #264, ( #323 ) ) ;
#113 = PERSON_AND_ORGANIZATION ( #182, #367 ) ;
#114 = CARTESIAN_POINT ( 'NONE',  ( 0.000000000000000000, 13.77115960228903013, 26.07635918709879519 ) ) ;
#115 = COORDINATED_UNIVERSAL_TIME_OFFSET ( 8, 0, .BEHIND. ) ;
#116 = SECURITY_CLASSIFICATION_LEVEL ( 'unclassified' ) ;
#117 = B_SPLINE_SURFACE_WITH_KNOTS ( 'NONE', 3, 3, ( 
 ( #25, #362, #283, #74, #223 ),
 ( #126, #13, #84, #342, #104 ),
 ( #229, #49, #136, #15, #130 ),
 ( #53, #45, #128, #257, #158 ),
 ( #197, #317, #251, #161, #18 ),
 ( #187, #51, #156, #255, #168 ),
 ( #219, #314, #312, #333, #76 ),
 ( #290, #371, #261, #78, #231 ),
 ( #163, #132, #307, #279, #366 ),
 ( #42, #364, #108, #190, #310 ),
 ( #106, #335, #285, #192, #225 ),
 ( #81, #194, #22, #369, #111 ),
 ( #202, #199, #234, #87, #170 ),
 ( #291, #240, #144, #28, #345 ),
 ( #350, #27, #296, #29, #145 ),
 ( #1, #207, #298, #320, #238 ),
 ( #173, #89, #60, #93, #64 ),
 ( #205, #293, #346, #204, #63 ) ),
 .UNSPECIFIED., .T., .F., .F.,
 ( 4, 1, 1, 1, 1, 2, 2, 2, 1, 1, 1, 1, 4 ),
 ( 4, 1, 4 ),
 ( 0.000000000000000000, 0.01249999999999995559, 0.02499999999999991118, 0.03750000000000008882, 0.05000000000000004441, 0.2500000000000000000, 0.5000000000000000000, 0.7500000000000000000, 0.9499999999999999556, 0.9625000000000000222, 0.9749999999999999778, 0.9875000000000000444, 1.000000000000000000 ),
 ( 0.000000000000000000, 0.6155263911310944192, 1.000000000000000000 ),
 .UNSPECIFIED. ) ;
#118 = COORDINATED_UNIVERSAL_TIME_OFFSET ( 8, 0, .BEHIND. ) ;
#119 = CARTESIAN_POINT ( 'NONE',  ( 0.000000000000000000, -14.92860166995849980, 50.50698742150030540 ) ) ;
#120 = ORIENTED_EDGE ( 'NONE', *, *, #294, .T. ) ;
#121 = CC_DESIGN_DATE_AND_TIME_ASSIGNMENT ( #2, #206, ( #90 ) ) ;
#122 = VERTEX_POINT ( 'NONE', #351 ) ;
#123 = CARTESIAN_POINT ( 'NONE',  ( 160.0000000000000000, 6.938172630580824674, 7.225776622680550432 ) ) ;
#124 = FACE_OUTER_BOUND ( 'NONE', #322, .T. ) ;
#125 = CARTESIAN_POINT ( 'NONE',  ( 0.000000000000000000, 8.024660519306612727, -11.17293129340319702 ) ) ;
#126 = CARTESIAN_POINT ( 'NONE',  ( 160.0000000000000000, 13.33314829023155390, 23.02293611868198653 ) ) ;
#127 = CARTESIAN_POINT ( 'NONE',  ( 0.000000000000000000, 16.81820011172268536, 2.797641679269117443 ) ) ;
#128 = CARTESIAN_POINT ( 'NONE',  ( 71.40223724014461482, -16.68949980528238441, -11.68125643663327828 ) ) ;
#129 = CARTESIAN_POINT ( 'NONE',  ( 0.000000000000000000, -14.92860166995849980, 50.50698742150030540 ) ) ;
#130 = CARTESIAN_POINT ( 'NONE',  ( 0.000000000000000000, 14.64622563837581737, 23.51350175318933466 ) ) ;
#131 = CARTESIAN_POINT ( 'NONE',  ( 126.5974777749009377, 0.9829308053054428562, 11.92245455257825171 ) ) ;
#132 = CARTESIAN_POINT ( 'NONE',  ( 126.7025136712046134, -41.10971178174465024, 12.28879652171770864 ) ) ;
#133 = LOCAL_TIME ( 14, 45, 9.000000000000000000, #118 ) ;
#134 = APPLICATION_PROTOCOL_DEFINITION ( 'international standard', 'config_control_design', 1994, #4 ) ;
#135 = CARTESIAN_POINT ( 'NONE',  ( 20.03584700453782119, -43.40029539684261550, -8.798999444320070751 ) ) ;
#136 = CARTESIAN_POINT ( 'NONE',  ( 71.37921294133454353, -15.75416355027208226, -10.76978968105924572 ) ) ;
#137 = B_SPLINE_CURVE_WITH_KNOTS ( 'NONE', 3,
 ( #149, #356, #299, #35, #183 ),
 .UNSPECIFIED., .F., .F.,
 ( 4, 1, 4 ),
 ( 0.000000000000000000, 0.6155263911310944192, 1.000000000000000000 ),
 .UNSPECIFIED. ) ;
#138 = COORDINATED_UNIVERSAL_TIME_OFFSET ( 8, 0, .BEHIND. ) ;
#139 = PERSON_AND_ORGANIZATION_ROLE ( 'classification_officer' ) ;
#140 = CARTESIAN_POINT ( 'NONE',  ( 160.0000000000000000, 13.68443564844238125, 25.72779357474152562 ) ) ;
#141 = B_SPLINE_CURVE_WITH_KNOTS ( 'NONE', 3,
 ( #185, #300, #36, #249, #305, #6, #119, #40, #154, #242 ),
 .UNSPECIFIED., .F., .F.,
 ( 4, 1, 1, 1, 1, 2, 4 ),
 ( 0.000000000000000000, 0.01249999999999977865, 0.02499999999999966832, 0.03749999999999944350, 0.04999999999999933664, 0.2499999999999964473, 0.4999999999999928946 ),
 .UNSPECIFIED. ) ;
#142 = LOCAL_TIME ( 14, 45, 9.000000000000000000, #115 ) ;
#143 =( NAMED_UNIT ( * ) PLANE_ANGLE_UNIT ( ) SI_UNIT ( $, .RADIAN. ) );
#144 = CARTESIAN_POINT ( 'NONE',  ( 71.27531102226208759, -12.82110931064771187, -6.433841752215096577 ) ) ;
#145 = CARTESIAN_POINT ( 'NONE',  ( 0.000000000000000000, 11.53459702405628207, 30.94819364567847231 ) ) ;
#146 = CARTESIAN_POINT ( 'NONE',  ( 19.85992231371493943, -0.1377607434315294421, 8.872972368537679344 ) ) ;
#147 = VERTEX_POINT ( 'NONE', #210 ) ;
#148 = CARTESIAN_POINT ( 'NONE',  ( 0.000000000000000000, 13.77115960228903013, 26.07635918709879519 ) ) ;
#149 = CARTESIAN_POINT ( 'NONE',  ( 160.0000000000000000, -35.65414862443974897, 31.09628904546230643 ) ) ;
#150 =( GEOMETRIC_REPRESENTATION_CONTEXT ( 3 ) GLOBAL_UNCERTAINTY_ASSIGNED_CONTEXT ( ( #220 ) ) GLOBAL_UNIT_ASSIGNED_CONTEXT ( ( #265, #143, #3 ) ) REPRESENTATION_CONTEXT ( 'NONE', 'WORKASPACE' ) );
#151 = CARTESIAN_POINT ( 'NONE',  ( 126.5189894486525901, -0.5743279952642852404, 6.781335359984834277 ) ) ;
#152 = CARTESIAN_POINT ( 'NONE',  ( 126.5497045085629821, 0.2331168883016783711, 8.816156122328729694 ) ) ;
#153 = VERTEX_POINT ( 'NONE', #215 ) ;
#154 = CARTESIAN_POINT ( 'NONE',  ( 0.000000000000000000, -54.24288407709187965, 20.14413347263074883 ) ) ;
#155 = CARTESIAN_POINT ( 'NONE',  ( 71.37921294133454353, -15.75416355027208226, -10.76978968105924572 ) ) ;
#156 = CARTESIAN_POINT ( 'NONE',  ( 71.53999622590427521, -23.93928774126822390, -16.89520877996515580 ) ) ;
#157 = CARTESIAN_POINT ( 'NONE',  ( 71.53999622590427521, -23.93928774126822390, -16.89520877996515580 ) ) ;
#158 = CARTESIAN_POINT ( 'NONE',  ( 0.000000000000000000, 15.26360663591148992, 20.92761322230436249 ) ) ;
#159 = APPROVAL_PERSON_ORGANIZATION ( #166, #248, #373 ) ;
#160 = CARTESIAN_POINT ( 'NONE',  ( 0.000000000000000000, -41.57463414813659597, -13.89793947696231768 ) ) ;
#161 = CARTESIAN_POINT ( 'NONE',  ( 19.79764297567101750, -0.1949191968781011641, 3.378836941396399229 ) ) ;
#162 = CARTESIAN_POINT ( 'NONE',  ( 20.07733395605386661, -5.410159663925496965, 24.16506992445280133 ) ) ;
#163 = CARTESIAN_POINT ( 'NONE',  ( 160.0000000000000000, -37.69513702311751047, 17.54971551077125724 ) ) ;
#164 = APPROVAL ( #318, 'UNSPECIFIED' ) ;
#165 = CC_DESIGN_PERSON_AND_ORGANIZATION_ASSIGNMENT ( #91, #139, ( #90 ) ) ;
#166 = PERSON_AND_ORGANIZATION ( #182, #367 ) ;
#167 = CARTESIAN_POINT ( 'NONE',  ( 71.55561395178817463, -32.27891149627079415, -17.10986536738015218 ) ) ;
#168 = CARTESIAN_POINT ( 'NONE',  ( 0.000000000000000000, 16.81820011172268536, 2.797641679269117443 ) ) ;
#169 = DIRECTION ( 'NONE',  ( 0.000000000000000000, 0.000000000000000000, 1.000000000000000000 ) ) ;
#170 = CARTESIAN_POINT ( 'NONE',  ( 0.000000000000000000, 0.8587462594679151628, 45.68382527376081015 ) ) ;
#171 = CARTESIAN_POINT ( 'NONE',  ( 0.000000000000000000, 15.66582839068450106, 18.33447034822869881 ) ) ;
#172 = APPROVAL_DATE_TIME ( #82, #164 ) ;
#173 = CARTESIAN_POINT ( 'NONE',  ( 160.0000000000000000, 13.53724713009932756, 24.37759347215108363 ) ) ;
#174 = AXIS2_PLACEMENT_3D ( 'NONE', #331, #95, #179 ) ;
#175 = CC_DESIGN_PERSON_AND_ORGANIZATION_ASSIGNMENT ( #57, #237, ( #323 ) ) ;
#176 = ORIENTED_EDGE ( 'NONE', *, *, #281, .F. ) ;
#177 = CARTESIAN_POINT ( 'NONE',  ( 160.0000000000000000, 13.63533800977861432, 29.70911057025114843 ) ) ;
#178 = CARTESIAN_POINT ( 'NONE',  ( 160.0000000000000000, 13.43519771016543984, 23.70026479541653686 ) ) ;
#179 = DIRECTION ( 'NONE',  ( 0.000000000000000000, 0.000000000000000000, -1.000000000000000000 ) ) ;
#180 = CARTESIAN_POINT ( 'NONE',  ( 126.5265889803816037, -0.3617353381805969992, 7.288909440749510971 ) ) ;
#181 = DIRECTION ( 'NONE',  ( -1.000000000000000000, 0.000000000000000000, 0.000000000000000000 ) ) ;
#182 = PERSON ( 'UNSPECIFIED', 'UNSPECIFIED', 'UNSPECIFIED', ('UNSPECIFIED'), ('UNSPECIFIED'), ('UNSPECIFIED') ) ;
#183 = CARTESIAN_POINT ( 'NONE',  ( 0.000000000000000000, -47.90875911261448294, 3.123096997833677335 ) ) ;
#184 = PLANE ( 'NONE',  #360 ) ;
#185 = CARTESIAN_POINT ( 'NONE',  ( 0.000000000000000000, 13.77115960228903013, 26.07635918709879519 ) ) ;
#186 = CARTESIAN_POINT ( 'NONE',  ( 19.90669072700531927, -0.7979457309665439757, 12.50851655234366611 ) ) ;
#187 = CARTESIAN_POINT ( 'NONE',  ( 160.0000000000000000, 6.938172630580824674, 7.225776622680550432 ) ) ;
#188 = CARTESIAN_POINT ( 'NONE',  ( 126.5341885121105889, -0.1491426810969086747, 7.796483521514188553 ) ) ;
#189 = CARTESIAN_POINT ( 'NONE',  ( 160.0000000000000000, -33.61316022576198037, 44.64286258015337694 ) ) ;
#190 = CARTESIAN_POINT ( 'NONE',  ( 20.30291437726510395, -47.07029680916969028, 17.09236366791753881 ) ) ;
#191 = CARTESIAN_POINT ( 'NONE',  ( 160.0000000000000284, 11.85600221269596055, 17.89919375068271989 ) ) ;
#192 = CARTESIAN_POINT ( 'NONE',  ( 20.36251572104299967, -37.97632049601733684, 27.44508965191031535 ) ) ;
#193 = CARTESIAN_POINT ( 'NONE',  ( 127.0291823877094970, -21.40664979139592816, 37.57212404667878047 ) ) ;
#194 = CARTESIAN_POINT ( 'NONE',  ( 126.8969376032665082, -2.571328897769634469, 30.05572084545041989 ) ) ;
#195 = PERSON_AND_ORGANIZATION ( #182, #367 ) ;
#196 = CARTESIAN_POINT ( 'NONE',  ( 19.69295430472605446, -2.082486723387416028, -7.209107470319513489 ) ) ;
#197 = CARTESIAN_POINT ( 'NONE',  ( 160.0000000000000284, 11.85600221269596055, 17.89919375068271989 ) ) ;
#198 = CALENDAR_DATE ( 2026, 20, 9 ) ;
#199 = CARTESIAN_POINT ( 'NONE',  ( 126.7440006227210887, 2.074739367243495725, 21.28539255416534814 ) ) ;
#200 = LOCAL_TIME ( 14, 45, 9.000000000000000000, #138 ) ;
#201 = EDGE_CURVE ( 'NONE', #153, #122, #336, .T. ) ;
#202 = CARTESIAN_POINT ( 'NONE',  ( 160.0000000000000000, 12.08064461279719914, 41.35770745693407235 ) ) ;
#203 = CALENDAR_DATE ( 2026, 20, 9 ) ;
#204 = CARTESIAN_POINT ( 'NONE',  ( 19.85992231371493943, -0.1377607434315294421, 8.872972368537679344 ) ) ;
#205 = CARTESIAN_POINT ( 'NONE',  ( 160.0000000000000000, 13.43519771016543984, 23.70026479541653686 ) ) ;
#206 = DATE_TIME_ROLE ( 'classification_date' ) ;
#207 = CARTESIAN_POINT ( 'NONE',  ( 126.5497045085629821, 0.2331168883016783711, 8.816156122328729694 ) ) ;
#208 = PRODUCT_DEFINITION_SHAPE ( 'NONE', 'NONE',  #236 ) ;
#209 = CARTESIAN_POINT ( 'NONE',  ( 160.0000000000000000, -35.65414862443974897, 31.09628904546230643 ) ) ;
#210 = CARTESIAN_POINT ( 'NONE',  ( 0.000000000000000000, -47.90875911261448294, 3.123096997833677335 ) ) ;
#211 = ORIENTED_EDGE ( 'NONE', *, *, #201, .F. ) ;
#212 = CARTESIAN_POINT ( 'NONE',  ( 0.000000000000000000, -47.90875911261448294, 3.123096997833677335 ) ) ;
#213 = CARTESIAN_POINT ( 'NONE',  ( 19.88303784189625745, -0.3842096182488217160, 10.72268826559707833 ) ) ;
#214 = ORIENTED_EDGE ( 'NONE', *, *, #19, .T. ) ;
#215 = CARTESIAN_POINT ( 'NONE',  ( 160.0000000000000000, 13.43519771016543984, 23.70026479541653686 ) ) ;
#216 = CARTESIAN_POINT ( 'NONE',  ( 71.38929447835251096, -44.29402339213269357, -6.174289212008336136 ) ) ;
#217 = CARTESIAN_POINT ( 'NONE',  ( 160.0000000000000000, 13.33314829023155390, 23.02293611868198653 ) ) ;
#218 = CARTESIAN_POINT ( 'NONE',  ( 160.0000000000000000, 13.63533800977861432, 29.70911057025114843 ) ) ;
#219 = CARTESIAN_POINT ( 'NONE',  ( 160.0000000000000000, -3.970228754407193250, 1.220813034194613955 ) ) ;
#220 = UNCERTAINTY_MEASURE_WITH_UNIT (LENGTH_MEASURE( 1.000000000000000082E-05 ), #265, 'distance_accuracy_value', 'NONE');
#221 = B_SPLINE_CURVE_WITH_KNOTS ( 'NONE', 3,
 ( #209, #61, #86, #321, #31, #177, #92, #140, #268, #348 ),
 .UNSPECIFIED., .F., .F.,
 ( 4, 2, 1, 1, 1, 1, 4 ),
 ( 0.4999999999999963918, 0.7499999999999982236, 0.9499999999999995115, 0.9624999999999996891, 0.9749999999999997558, 0.9874999999999998224, 1.000000000000000000 ),
 .UNSPECIFIED. ) ;
#222 = CARTESIAN_POINT ( 'NONE',  ( 0.000000000000000000, -45.56646732459127236, 39.10556248544010316 ) ) ;
#223 = CARTESIAN_POINT ( 'NONE',  ( 0.000000000000000000, 13.77115960228903013, 26.07635918709879519 ) ) ;
#224 = CARTESIAN_POINT ( 'NONE',  ( 71.40223724014461482, -16.68949980528238441, -11.68125643663327828 ) ) ;
#225 = CARTESIAN_POINT ( 'NONE',  ( 0.000000000000000000, -45.56646732459127236, 39.10556248544010316 ) ) ;
#226 = OPEN_SHELL ( 'NONE', ( #355, #55, #88, #34 ) ) ;
#227 = PERSON_AND_ORGANIZATION ( #182, #367 ) ;
#228 = CARTESIAN_POINT ( 'NONE',  ( 160.0000000000000000, 12.08064461279719914, 41.35770745693407235 ) ) ;
#229 = CARTESIAN_POINT ( 'NONE',  ( 160.0000000000000000, 13.07597877556238686, 21.68930625335500650 ) ) ;
#230 = CALENDAR_DATE ( 2026, 20, 9 ) ;
#231 = CARTESIAN_POINT ( 'NONE',  ( 0.000000000000000000, -22.61320513532616161, -22.57435622946341169 ) ) ;
#232 = CALENDAR_DATE ( 2026, 20, 9 ) ;
#233 = MANIFOLD_SURFACE_SHAPE_REPRESENTATION ( 'circlesloft1', ( #353, #243 ), #150 ) ;
#234 = CARTESIAN_POINT ( 'NONE',  ( 71.11226153516990678, -9.887099041909802821, 0.6445045363522705628 ) ) ;
#235 = DATE_AND_TIME ( #232, #142 ) ;
#236 = PRODUCT_DEFINITION ( 'UNKNOWN', '', #323, #98 ) ;
#237 = PERSON_AND_ORGANIZATION_ROLE ( 'design_supplier' ) ;
#238 = CARTESIAN_POINT ( 'NONE',  ( 0.000000000000000000, 12.75790433737568463, 28.58779155970671937 ) ) ;
#239 = CC_DESIGN_SECURITY_CLASSIFICATION ( #90, ( #323 ) ) ;
#240 = CARTESIAN_POINT ( 'NONE',  ( 126.5974777749009377, 0.9829308053054428562, 11.92245455257825171 ) ) ;
#241 = ORIENTED_EDGE ( 'NONE', *, *, #374, .F. ) ;
#242 = CARTESIAN_POINT ( 'NONE',  ( 0.000000000000000000, -47.90875911261448294, 3.123096997833677335 ) ) ;
#243 = AXIS2_PLACEMENT_3D ( 'NONE', #23, #169, #109 ) ;
#244 = ORIENTED_EDGE ( 'NONE', *, *, #275, .T. ) ;
#245 = CARTESIAN_POINT ( 'NONE',  ( 71.35419552224939821, -14.89516300712848640, -9.753774440575959659 ) ) ;
#246 = CARTESIAN_POINT ( 'NONE',  ( 0.000000000000000000, 14.08786585051292484, 25.22530736335899704 ) ) ;
#247 = CARTESIAN_POINT ( 'NONE',  ( 160.0000000000000000, -3.970228754407193250, 1.220813034194613955 ) ) ;
#248 = APPROVAL ( #343, 'UNSPECIFIED' ) ;
#249 = CARTESIAN_POINT ( 'NONE',  ( 0.000000000000000000, 11.53459702405628207, 30.94819364567847231 ) ) ;
#250 = CARTESIAN_POINT ( 'NONE',  ( 160.0000000000000000, -20.95803686680532252, 53.98393848641978821 ) ) ;
#251 = CARTESIAN_POINT ( 'NONE',  ( 71.42349948593565045, -17.68180453041413358, -12.50523061484459575 ) ) ;
#252 = CARTESIAN_POINT ( 'NONE',  ( 0.000000000000000000, -22.61320513532616161, -22.57435622946341169 ) ) ;
#253 = CARTESIAN_POINT ( 'NONE',  ( 0.000000000000000000, 13.77115960228903013, 26.07635918709879519 ) ) ;
#254 = CARTESIAN_POINT ( 'NONE',  ( 19.82838097558844126, -33.01955534000965287, -17.93340938828447406 ) ) ;
#255 = CARTESIAN_POINT ( 'NONE',  ( 19.69295430472605446, -2.082486723387416028, -7.209107470319513489 ) ) ;
#256 = CARTESIAN_POINT ( 'NONE',  ( 0.000000000000000000, 15.66582839068450106, 18.33447034822869881 ) ) ;
#257 = CARTESIAN_POINT ( 'NONE',  ( 19.81675008762768542, -0.02081745467088740031, 5.178997558840889859 ) ) ;
#258 = LOCAL_TIME ( 14, 45, 9.000000000000000000, #288 ) ;
#259 = APPLICATION_PROTOCOL_DEFINITION ( 'international standard', 'config_control_design', 1994, #26 ) ;
#260 = CARTESIAN_POINT ( 'NONE',  ( 70.86123739440397173, -34.09158075347409067, 16.84158990708081660 ) ) ;
#261 = CARTESIAN_POINT ( 'NONE',  ( 71.38929447835251096, -44.29402339213269357, -6.174289212008336136 ) ) ;
#262 = CALENDAR_DATE ( 2026, 20, 9 ) ;
#263 = APPROVAL_ROLE ( '' ) ;
#264 = PERSON_AND_ORGANIZATION_ROLE ( 'creator' ) ;
#265 =( LENGTH_UNIT ( ) NAMED_UNIT ( * ) SI_UNIT ( .MILLI., .METRE. ) );
#266 = APPROVAL_DATE_TIME ( #372, #30 ) ;
#267 = PERSON_AND_ORGANIZATION ( #182, #367 ) ;
#268 = CARTESIAN_POINT ( 'NONE',  ( 160.0000000000000000, 13.53724713009932756, 24.37759347215108363 ) ) ;
#269 = FACE_OUTER_BOUND ( 'NONE', #37, .T. ) ;
#270 = CARTESIAN_POINT ( 'NONE',  ( 126.5265889803816037, -0.3617353381805969992, 7.288909440749510971 ) ) ;
#271 = CARTESIAN_POINT ( 'NONE',  ( 71.35419552224939821, -14.89516300712848640, -9.753774440575959659 ) ) ;
#272 = B_SPLINE_CURVE_WITH_KNOTS ( 'NONE', 3,
 ( #178, #180, #301, #287, #253 ),
 .UNSPECIFIED., .F., .F.,
 ( 4, 1, 4 ),
 ( 0.000000000000000000, 0.6155263911310944192, 1.000000000000000000 ),
 .UNSPECIFIED. ) ;
#273 = CARTESIAN_POINT ( 'NONE',  ( 71.36265222213604886, -15.17524885104138122, -10.10070510744624883 ) ) ;
#274 = DIRECTION ( 'NONE',  ( 0.000000000000000000, 0.000000000000000000, 1.000000000000000000 ) ) ;
#275 = EDGE_CURVE ( 'NONE', #324, #147, #141, .T. ) ;
#276 = ORIENTED_EDGE ( 'NONE', *, *, #281, .T. ) ;
#277 = CARTESIAN_POINT ( 'NONE',  ( 0.000000000000000000, -22.61320513532664478, -22.57435622946358933 ) ) ;
#278 = CARTESIAN_POINT ( 'NONE',  ( 126.9695810439319104, -33.02139977336808130, 33.30215709871799845 ) ) ;
#279 = CARTESIAN_POINT ( 'NONE',  ( 20.03584700453782119, -43.40029539684261550, -8.798999444320070751 ) ) ;
#280 = CARTESIAN_POINT ( 'NONE',  ( 71.32847274201463961, -14.09299645354315267, -8.692416955496033992 ) ) ;
#281 = EDGE_CURVE ( 'NONE', #147, #324, #347, .T. ) ;
#282 = CARTESIAN_POINT ( 'NONE',  ( 19.83744065152245994, 0.007882548951646955321, 7.012488210031600389 ) ) ;
#283 = CARTESIAN_POINT ( 'NONE',  ( 71.35419552224939821, -14.89516300712848640, -9.753774440575959659 ) ) ;
#284 = CARTESIAN_POINT ( 'NONE',  ( 20.36251572104299967, -37.97632049601733684, 27.44508965191031535 ) ) ;
#285 = CARTESIAN_POINT ( 'NONE',  ( 70.79491348193855060, -23.93376715000810506, 18.78411730125788637 ) ) ;
#286 = CARTESIAN_POINT ( 'NONE',  ( 19.79764297567101750, -0.1949191968781011641, 3.378836941396399229 ) ) ;
#287 = CARTESIAN_POINT ( 'NONE',  ( 19.85992231371493943, -0.1377607434315294421, 8.872972368537679344 ) ) ;
#288 = COORDINATED_UNIVERSAL_TIME_OFFSET ( 8, 0, .BEHIND. ) ;
#289 = CARTESIAN_POINT ( 'NONE',  ( 126.7025136712046134, -41.10971178174465024, 12.28879652171770864 ) ) ;
#290 = CARTESIAN_POINT ( 'NONE',  ( 160.0000000000000000, -28.35406111685110275, 4.894592151814578074 ) ) ;
#291 = CARTESIAN_POINT ( 'NONE',  ( 160.0000000000000000, 13.63533800977861432, 29.70911057025114843 ) ) ;
#292 = APPROVAL_DATE_TIME ( #235, #248 ) ;
#293 = CARTESIAN_POINT ( 'NONE',  ( 126.5265889803816037, -0.3617353381805969992, 7.288909440749510971 ) ) ;
#294 = EDGE_CURVE ( 'NONE', #153, #324, #272, .T. ) ;
#295 = B_SPLINE_SURFACE_WITH_KNOTS ( 'NONE', 3, 3, ( 
 ( #303, #100, #271, #146, #96 ),
 ( #5, #151, #273, #9, #246 ),
 ( #358, #105, #155, #282, #52 ),
 ( #24, #103, #224, #83, #337 ),
 ( #191, #48, #44, #286, #256 ),
 ( #14, #311, #157, #196, #127 ),
 ( #316, #21, #167, #80, #125 ),
 ( #334, #365, #216, #254, #252 ),
 ( #368, #289, #17, #135, #160 ),
 ( #189, #278, #260, #309, #12 ),
 ( #250, #193, #77, #284, #222 ),
 ( #363, #361, #313, #370, #129 ),
 ( #228, #50, #107, #162, #110 ),
 ( #218, #131, #332, #330, #41 ),
 ( #341, #306, #73, #186, #75 ),
 ( #97, #152, #280, #213, #102 ),
 ( #302, #188, #328, #8, #359 ),
 ( #68, #270, #245, #39, #148 ) ),
 .UNSPECIFIED., .T., .F., .F.,
 ( 4, 1, 1, 1, 1, 2, 2, 2, 1, 1, 1, 1, 4 ),
 ( 4, 1, 4 ),
 ( 0.000000000000000000, 0.01249999999999995559, 0.02499999999999991118, 0.03750000000000008882, 0.05000000000000004441, 0.2500000000000000000, 0.5000000000000000000, 0.7500000000000000000, 0.9499999999999999556, 0.9625000000000000222, 0.9749999999999999778, 0.9875000000000000444, 1.000000000000000000 ),
 ( 0.000000000000000000, 0.6155263911310944192, 1.000000000000000000 ),
 .UNSPECIFIED. ) ;
#296 = CARTESIAN_POINT ( 'NONE',  ( 71.30215199516415225, -13.40641976525365031, -7.581717550348033186 ) ) ;
#297 = ORIENTED_EDGE ( 'NONE', *, *, #374, .T. ) ;
#298 = CARTESIAN_POINT ( 'NONE',  ( 71.32847274201463961, -14.09299645354315267, -8.692416955496033992 ) ) ;
#299 = CARTESIAN_POINT ( 'NONE',  ( 71.00983264350747959, -40.14904315142690905, 10.39142449584071848 ) ) ;
#300 = CARTESIAN_POINT ( 'NONE',  ( 0.000000000000000000, 13.45445335406513720, 26.92741101083859334 ) ) ;
#301 = CARTESIAN_POINT ( 'NONE',  ( 71.35419552224939821, -14.89516300712848640, -9.753774440575959659 ) ) ;
#302 = CARTESIAN_POINT ( 'NONE',  ( 160.0000000000000000, 13.53724713009932756, 24.37759347215108363 ) ) ;
#303 = CARTESIAN_POINT ( 'NONE',  ( 160.0000000000000000, 13.43519771016543984, 23.70026479541653686 ) ) ;
#304 = APPROVAL_PERSON_ORGANIZATION ( #54, #30, #85 ) ;
#305 = CARTESIAN_POINT ( 'NONE',  ( 0.000000000000000000, 10.14373169489140381, 33.17342755282377453 ) ) ;
#306 = CARTESIAN_POINT ( 'NONE',  ( 126.5733573936719267, 0.6723643904646102731, 10.36467899639976054 ) ) ;
#307 = CARTESIAN_POINT ( 'NONE',  ( 71.15842789261098744, -46.20650554937972032, 3.941259084600620799 ) ) ;
#308 = CARTESIAN_POINT ( 'NONE',  ( 160.0000000000000000, 0.000000000000000000, 0.000000000000000000 ) ) ;
#309 = CARTESIAN_POINT ( 'NONE',  ( 20.30291437726510395, -47.07029680916969028, 17.09236366791753881 ) ) ;
#310 = CARTESIAN_POINT ( 'NONE',  ( 0.000000000000000000, -54.24288407709236282, 20.14413347262967235 ) ) ;
#311 = CARTESIAN_POINT ( 'NONE',  ( 126.3596209713931984, -8.668622630999378131, -4.251336760346603683 ) ) ;
#312 = CARTESIAN_POINT ( 'NONE',  ( 71.55561395178817463, -32.27891149627079415, -17.10986536738015218 ) ) ;
#313 = CARTESIAN_POINT ( 'NONE',  ( 70.94207445099522147, -12.29770507000420920, 8.270594266310771658 ) ) ;
#314 = CARTESIAN_POINT ( 'NONE',  ( 126.3455862527699196, -18.14895737390006047, -6.566007450446509353 ) ) ;
#315 = DATE_TIME_ROLE ( 'creation_date' ) ;
#316 = CARTESIAN_POINT ( 'NONE',  ( 160.0000000000000000, -3.970228754407193250, 1.220813034194613955 ) ) ;
#317 = CARTESIAN_POINT ( 'NONE',  ( 126.4643096423375965, -2.734804230142436232, 3.088437161295340072 ) ) ;
#318 = APPROVAL_STATUS ( 'not_yet_approved' ) ;
#319 = COORDINATED_UNIVERSAL_TIME_OFFSET ( 8, 0, .BEHIND. ) ;
#320 = CARTESIAN_POINT ( 'NONE',  ( 19.88303784189625745, -0.3842096182488217160, 10.72268826559707833 ) ) ;
#321 = CARTESIAN_POINT ( 'NONE',  ( 160.0000000000000000, 3.425795495638571442, 50.31015936879982320 ) ) ;
#322 = EDGE_LOOP ( 'NONE', ( #327, #176 ) ) ;
#323 = PRODUCT_DEFINITION_FORMATION_WITH_SPECIFIED_SOURCE ( 'ANY', '', #20, .NOT_KNOWN. ) ;
#324 = VERTEX_POINT ( 'NONE', #114 ) ;
#325 = CARTESIAN_POINT ( 'NONE',  ( 0.000000000000000000, 13.77115960228903013, 26.07635918709879519 ) ) ;
#326 = CARTESIAN_POINT ( 'NONE',  ( 0.000000000000000000, -41.57463414813766178, -13.89793947696182563 ) ) ;
#327 = ORIENTED_EDGE ( 'NONE', *, *, #275, .F. ) ;
#328 = CARTESIAN_POINT ( 'NONE',  ( 71.34573882236271913, -14.61507716321559158, -9.406843773705668710 ) ) ;
#329 = CARTESIAN_POINT ( 'NONE',  ( 160.0000000000000000, -28.35406111685090735, 4.894592151814548764 ) ) ;
#330 = CARTESIAN_POINT ( 'NONE',  ( 19.93081110823434443, -1.344654919279100191, 14.23215198596126818 ) ) ;
#331 = CARTESIAN_POINT ( 'NONE',  ( 8.081189951195715013E-15, 0.000000000000000000, 0.000000000000000000 ) ) ;
#332 = CARTESIAN_POINT ( 'NONE',  ( 71.27531102226208759, -12.82110931064771187, -6.433841752215096577 ) ) ;
#333 = CARTESIAN_POINT ( 'NONE',  ( 19.67891958610305636, -10.12720596672351903, -14.61800140409594917 ) ) ;
#334 = CARTESIAN_POINT ( 'NONE',  ( 160.0000000000000000, -28.35406111685110275, 4.894592151814578074 ) ) ;
#335 = CARTESIAN_POINT ( 'NONE',  ( 127.0291823877094970, -21.40664979139592816, 37.57212404667878047 ) ) ;
#336 = B_SPLINE_CURVE_WITH_KNOTS ( 'NONE', 3,
 ( #10, #217, #94, #38, #66, #123, #247, #329, #354, #72 ),
 .UNSPECIFIED., .F., .F.,
 ( 4, 1, 1, 1, 1, 2, 4 ),
 ( 0.000000000000000000, 0.01249999999999986539, 0.02499999999999973077, 0.03749999999999981820, 0.04999999999999968359, 0.2499999999999981959, 0.4999999999999963918 ),
 .UNSPECIFIED. ) ;
#337 = CARTESIAN_POINT ( 'NONE',  ( 0.000000000000000000, 15.26360663591148992, 20.92761322230436249 ) ) ;
#338 = FACE_OUTER_BOUND ( 'NONE', #33, .T. ) ;
#339 = CC_DESIGN_PERSON_AND_ORGANIZATION_ASSIGNMENT ( #113, #58, ( #20 ) ) ;
#340 = MECHANICAL_CONTEXT ( 'NONE', #4, 'mechanical' ) ;
#341 = CARTESIAN_POINT ( 'NONE',  ( 160.0000000000000000, 13.73986988639018847, 27.73242996240275104 ) ) ;
#342 = CARTESIAN_POINT ( 'NONE',  ( 19.85232278198597200, -0.07042601750757454537, 8.249268836623212309 ) ) ;
#343 = APPROVAL_STATUS ( 'not_yet_approved' ) ;
#344 = DATE_AND_TIME ( #230, #258 ) ;
#345 = CARTESIAN_POINT ( 'NONE',  ( 0.000000000000000000, 10.14373169489140381, 33.17342755282377453 ) ) ;
#346 = CARTESIAN_POINT ( 'NONE',  ( 71.35419552224939821, -14.89516300712848640, -9.753774440575959659 ) ) ;
#347 = B_SPLINE_CURVE_WITH_KNOTS ( 'NONE', 3,
 ( #212, #326, #277, #11, #46, #171, #16, #357, #67, #325 ),
 .UNSPECIFIED., .F., .F.,
 ( 4, 2, 1, 1, 1, 1, 4 ),
 ( 0.4999999999999928946, 0.7499999999999964473, 0.9499999999999992895, 0.9624999999999993561, 0.9749999999999997558, 0.9874999999999998224, 1.000000000000000000 ),
 .UNSPECIFIED. ) ;
#348 = CARTESIAN_POINT ( 'NONE',  ( 160.0000000000000000, 13.43519771016543984, 23.70026479541653686 ) ) ;
#349 = PRODUCT_RELATED_PRODUCT_CATEGORY ( 'detail', '', ( #20 ) ) ;
#350 = CARTESIAN_POINT ( 'NONE',  ( 160.0000000000000000, 13.73986988639018847, 27.73242996240275104 ) ) ;
#351 = CARTESIAN_POINT ( 'NONE',  ( 160.0000000000000000, -35.65414862443974897, 31.09628904546230643 ) ) ;
#352 = ORIENTED_EDGE ( 'NONE', *, *, #201, .T. ) ;
#353 = SHELL_BASED_SURFACE_MODEL ( 'NONE', ( #226 ) );
#354 = CARTESIAN_POINT ( 'NONE',  ( 160.0000000000000000, -37.69513702311724757, 17.54971551077088776 ) ) ;
#355 = ADVANCED_FACE ( 'NONE', ( #338 ), #117, .T. ) ;
#356 = CARTESIAN_POINT ( 'NONE',  ( 126.8360473575682619, -37.06555577755636932, 22.79547681021785266 ) ) ;
#357 = CARTESIAN_POINT ( 'NONE',  ( 0.000000000000000000, 14.64622563837581737, 23.51350175318933466 ) ) ;
#358 = CARTESIAN_POINT ( 'NONE',  ( 160.0000000000000000, 13.07597877556238686, 21.68930625335500650 ) ) ;
#359 = CARTESIAN_POINT ( 'NONE',  ( 0.000000000000000000, 13.45445335406513720, 26.92741101083859334 ) ) ;
#360 = AXIS2_PLACEMENT_3D ( 'NONE', #308, #181, #274 ) ;
#361 = CARTESIAN_POINT ( 'NONE',  ( 126.8969376032665082, -2.571328897769634469, 30.05572084545041989 ) ) ;
#362 = CARTESIAN_POINT ( 'NONE',  ( 126.5265889803816037, -0.3617353381805969992, 7.288909440749510971 ) ) ;
#363 = CARTESIAN_POINT ( 'NONE',  ( 160.0000000000000000, 3.425795495638571442, 50.31015936879982320 ) ) ;
#364 = CARTESIAN_POINT ( 'NONE',  ( 126.9695810439319104, -33.02139977336808130, 33.30215709871799845 ) ) ;
#365 = CARTESIAN_POINT ( 'NONE',  ( 126.4950476422549741, -36.81534446348378253, 0.6423506968372345582 ) ) ;
#366 = CARTESIAN_POINT ( 'NONE',  ( 0.000000000000000000, -41.57463414813659597, -13.89793947696231768 ) ) ;
#367 = ORGANIZATION ( 'UNSPECIFIED', 'UNSPECIFIED', '' ) ;
#368 = CARTESIAN_POINT ( 'NONE',  ( 160.0000000000000000, -37.69513702311751047, 17.54971551077125724 ) ) ;
#369 = CARTESIAN_POINT ( 'NONE',  ( 20.23027093659966980, -14.67635335528971297, 30.35343319587634170 ) ) ;
#370 = CARTESIAN_POINT ( 'NONE',  ( 20.23027093659966980, -14.67635335528971297, 30.35343319587634170 ) ) ;
#371 = CARTESIAN_POINT ( 'NONE',  ( 126.4950476422549741, -36.81534446348378253, 0.6423506968372345582 ) ) ;
#372 = DATE_AND_TIME ( #262, #133 ) ;
#373 = APPROVAL_ROLE ( '' ) ;
#374 = EDGE_CURVE ( 'NONE', #122, #153, #221, .T. ) ;
#375 = SHAPE_DEFINITION_REPRESENTATION ( #208, #233 ) ;
ENDSEC;
END-ISO-10303-21;
